<svg xmlns="http://www.w3.org/2000/svg" viewBox="8.065 8.065 1063.874 1063.874" xml:space="preserve" style="fill-rule:evenodd;clip-rule:evenodd;stroke-linejoin:round;stroke-miterlimit:2"><circle cx="573.929" cy="453.579" r="423.906" style="fill:#facc15" transform="translate(-180.19 -29.17) scale(1.25485)"/><g transform="translate(127.204 189.798) scale(.82595)"><clipPath id="a"><path d="M15.631 6.866h992.74v834.268H15.631z"/></clipPath><g clip-path="url(#a)"><path d="M475.731 271.375c-17.946 7.147-33.559 16.551-46.584 29.867-9.563 9.775-15.427 21.632-18.43 34.904-.92 4.066-2.774 7.311-6.953 8.307-21.844 5.205-39.164 18.035-55.198 32.869-13.329 12.332-26.355 24.997-39.367 37.666-6.329 6.162-4.417 14.705 3.496 16.798 3.833 1.013 6.932-.613 9.533-3.069 6.42-6.059 12.888-12.092 18.952-18.5 11.255-11.893 23.215-22.965 36.515-32.525 10.431-7.498 21.717-12.847 34.849-13.732 11.528-.777 21.528 1.86 28.677 11.567 7.268 9.868 7.035 20.395 2.361 31.223-6.674 15.462-19.491 24.008-34.18 30.492-3.04 1.342-6.142 2.66-8.923 4.444-4.876 3.129-6.022 9.152-3.016 14.05 2.537 4.132 6.892 4.945 12.216 1.772 7.338-4.374 14.76-3.414 22.128-.635 13.427 5.066 27.071 9.325 41.171 12.05 50.333 9.727 95.832-1.398 136.734-31.938 6.146-4.589 11.462-10.178 16.37-16.084 2.443-2.94 4.861-3.867 8.662-2.179 4.996 2.219 8.548.942 10.797-2.96 2.766-4.801 1.952-10.283-2.438-13.348-2.561-1.788-5.568-2.976-8.453-4.255-12.249-5.429-23.832-12.007-34.152-20.569-10.964-9.097-18.121-20.416-18.339-35.133-.213-14.383 9.782-24.925 24.311-27.019 15.018-2.165 27.865 2.935 40.042 10.71 17.58 11.225 31.876 26.187 46.204 41.09 4.734 4.924 9.253 10.077 14.631 14.327 4.983 3.936 9.264 3.436 13.548-1.37 3.539-3.971 3.548-8.359-.583-12.429-21.002-20.697-41.543-41.937-66.483-58.135-13.456-8.739-27.667-15.38-44.114-15.693-4.776-.09-6.5-4.024-9.527-6.991 3.923-4.778 8.829-7.952 13.509-11.28 19.249-13.69 40.509-22.851 63.519-28.206 5.345-1.244 5.606 1.711 6.511 5.292 3.59 14.196 13.053 22.382 27.008 25.765 15.855 3.844 30.772 2.796 42.135-10.428 9.908-11.531 6.45-29.482-6.574-37.317-5.015-3.016-10.276-5.502-16.249-6.048-1.11-.101-2.333-.252-3.131-1.73 4.036-3.676 9.022-5.987 13.57-8.922 7.419-4.787 14.901-9.478 22.414-14.117 5.993-3.7 7.123-3.434 11.643 2.043 26.824 32.499 46.639 68.875 59.93 108.812 11.875 35.681 19.245 72.272 22.324 109.781 1.94 23.63 2.521 47.249.741 70.866-2.604 34.572-6.914 68.885-19.598 101.514-16.864 43.384-45.787 77.097-84.164 102.763-49.636 33.196-104.425 54.171-162.455 67.332-23.734 5.383-47.649 9.548-71.87 11.555-25.261 2.093-50.511 1.784-75.754-1.499-35.686-4.641-70.316-13.093-103.649-26.689-66.337-27.059-116.981-71.923-152.024-134.376-15.573-27.754-28.017-56.748-33.188-88.39-3.795-23.218-5.151-46.612-4.123-70.147.72-16.465 1.584-32.901 3.368-49.303 2.484-22.849 6.257-45.455 11.425-67.836 10.472-45.358 26.928-88.456 48.423-129.734 15.494-29.753 27.556-60.983 38.205-92.765.846-2.525 1.621-5.089 2.698-7.516 2.143-4.834 5.691-6.673 10.872-5.897 4.806.719 6.475 3.928 7.026 8.361 1.021 8.207 4.956 11.669 11.478 10.438 5.492-1.037 8.628-5.75 7.876-12.6-1.25-11.394-6.998-19.572-17.921-23.722-2.32-.882-4.715-1.563-7.343-2.425.931-4.316 3.096-7.791 5.765-10.919 2.353-2.756 5.268-2.554 8.088-.653 30.591 20.622 65.006 26.846 100.938 25.277 37.414-1.633 74.638-5.847 111.561-12.357 17.037-3.003 34.183-5.542 50.722-10.816 19.177-6.116 35.526-16.589 48.384-32.238.84-1.022 1.561-2.143 2.238-3.08 6.526 4.364 7.67 8.116 4.664 14.344-2.967 6.148-6.283 12.136-7.321 19.026-1.314 8.725 2.989 14.633 10.605 14.478 5.767-.117 8.363-3.059 8.688-9.843.318-6.643.925-8.291 4.278-11.622 1.314.093 2.027 1.093 2.776 1.951 21.638 24.76 47.354 44.867 73.448 64.564 19.8 14.947 40.526 28.758 57.917 46.694 1.255 1.294 2.87 2.316 3.522 4.267-.788 2.483-3.253 3.126-5.137 4.31-11.989 7.543-24.044 14.982-35.312 23.602-1.19.911-2.508 1.741-3.452 2.872-9.742 11.67-22.616 16.48-37.304 19.048-29.336 5.131-55.071 18.498-78.148 37.138-1.296 1.047-2.68 2.021-3.813 3.227-4.489 4.78-9.58 5.064-15.519 2.928-16.553-5.954-33.604-9.555-51.267-9.773-16.334-.202-32.167 2.465-47.41 8.428Z" style="fill:#fff5f5"/><path d="M476.098 272.305c-17.81 7.094-33.309 16.421-46.237 29.636-9.43 9.64-15.207 21.337-18.168 34.426-1.01 4.462-3.111 7.966-7.697 9.059-21.672 5.163-38.843 17.913-54.751 32.63-13.323 12.326-26.342 24.985-39.348 37.648-2.876 2.799-3.927 6.122-3.313 9 .604 2.832 2.829 5.18 6.366 6.115 3.462.916 6.243-.611 8.592-2.829 6.406-6.046 12.86-12.066 18.911-18.46 11.299-11.939 23.307-23.053 36.658-32.65 10.584-7.608 22.041-13.02 35.365-13.918 11.887-.801 22.179 1.964 29.55 11.972 7.499 10.182 7.297 21.04 2.474 32.212-6.78 15.708-19.772 24.424-34.694 31.011-2.993 1.321-6.049 2.614-8.787 4.371-4.401 2.824-5.416 8.264-2.703 12.685 1.097 1.788 2.571 2.881 4.364 3.16 1.881.294 4.069-.283 6.487-1.724 7.625-4.545 15.337-3.599 22.993-.711 13.374 5.045 26.964 9.289 41.007 12.003 50.044 9.672 95.28-1.393 135.947-31.758 6.083-4.542 11.341-10.076 16.199-15.921 1.374-1.654 2.763-2.712 4.321-3.149 1.577-.442 3.352-.266 5.516.695 2.232.992 4.137 1.244 5.739.77 1.564-.461 2.805-1.615 3.785-3.315 2.491-4.323 1.81-9.269-2.143-12.029-2.51-1.752-5.459-2.908-8.286-4.161-12.334-5.466-23.994-12.092-34.386-20.714-11.195-9.288-18.477-20.86-18.7-35.888-.221-14.904 10.111-25.852 25.168-28.023 15.271-2.201 28.342 2.952 40.724 10.858 17.646 11.267 32.003 26.279 46.386 41.239 4.702 4.891 9.187 10.014 14.53 14.235 2.242 1.771 4.307 2.594 6.312 2.384 2.018-.212 3.93-1.458 5.869-3.635 1.574-1.765 2.396-3.608 2.332-5.477-.064-1.881-1.022-3.753-2.87-5.574-20.954-20.65-41.443-41.847-66.326-58.008-13.298-8.637-27.334-15.223-43.588-15.532-2.684-.051-4.517-1.165-6.097-2.699-1.408-1.367-2.596-3.093-4.111-4.577a1 1 0 0 1-.073-1.349c3.982-4.851 8.952-8.083 13.703-11.461 19.356-13.766 40.734-22.98 63.871-28.365 2.537-.591 4.101-.283 5.142.45.672.472 1.153 1.137 1.516 1.953.446 1.005.708 2.268 1.05 3.618 3.49 13.803 12.705 21.749 26.274 25.038 15.474 3.751 30.05 2.799 41.141-10.108 9.508-11.066 6.167-28.289-6.332-35.808-4.886-2.939-10.005-5.377-15.824-5.909-1.403-.128-2.911-.383-3.92-2.251a1 1 0 0 1 .206-1.215c4.078-3.713 9.108-6.057 13.702-9.022 7.424-4.791 14.912-9.486 22.431-14.128 3.306-2.041 5.315-2.871 7.077-2.553 1.753.317 3.38 1.803 5.862 4.81 26.904 32.596 46.777 69.078 60.108 109.133 11.9 35.758 19.286 72.426 22.372 110.015 1.944 23.682 2.525 47.354.742 71.023-2.612 34.67-6.944 69.08-19.664 101.802-16.94 43.58-45.989 77.449-84.54 103.231-49.739 33.265-104.639 54.288-162.79 67.476-23.78 5.393-47.741 9.565-72.008 11.577-25.332 2.099-50.652 1.788-75.966-1.504-35.772-4.652-70.485-13.127-103.898-26.756-66.552-27.146-117.361-72.156-152.518-134.811-15.631-27.857-28.113-56.96-33.303-88.718-3.806-23.286-5.167-46.749-4.135-70.353.721-16.486 1.587-32.944 3.372-49.367 2.489-22.889 6.269-45.534 11.445-67.953 10.492-45.441 26.977-88.618 48.511-129.97 15.47-29.708 27.511-60.889 38.144-92.622.856-2.554 1.643-5.148 2.731-7.604 1.177-2.653 2.76-4.466 4.739-5.528 1.974-1.058 4.359-1.377 7.196-.952 2.164.324 3.755 1.114 4.934 2.244 1.724 1.65 2.574 4.065 2.936 6.982.563 4.522 1.997 7.521 4.421 8.916 1.576.907 3.544 1.104 5.88.663 4.991-.942 7.75-5.282 7.067-11.508-1.206-10.994-6.743-18.892-17.282-22.897-2.306-.876-4.687-1.552-7.3-2.408a1 1 0 0 1-.666-1.161c.968-4.487 3.208-8.107 5.983-11.358 1.106-1.296 2.329-2.018 3.597-2.296 1.863-.408 3.862.15 5.81 1.463 30.407 20.498 64.62 26.667 100.335 25.107 37.37-1.631 74.551-5.84 111.431-12.342 16.994-2.996 34.096-5.525 50.592-10.785 18.991-6.056 35.183-16.423 47.916-31.92.826-1.005 1.533-2.108 2.199-3.03a1 1 0 0 1 1.367-.246c3.507 2.345 5.522 4.567 6.303 6.998.793 2.472.348 5.209-1.295 8.612-2.923 6.058-6.21 11.951-7.232 18.74-.611 4.054.04 7.462 1.772 9.83 1.682 2.3 4.386 3.569 7.823 3.499 2.545-.051 4.411-.673 5.656-2.083 1.291-1.463 1.906-3.704 2.054-6.808.337-7.03 1.024-8.758 4.572-12.284.205-.203.488-.308.776-.288 1.607.115 2.542 1.242 3.458 2.291 21.592 24.708 47.258 44.768 73.298 64.424 19.841 14.977 40.605 28.823 58.032 46.796 1.354 1.397 3.049 2.54 3.753 4.646.067.201.068.418.004.62-.472 1.486-1.427 2.436-2.565 3.177-.955.622-2.046 1.082-2.992 1.677-11.964 7.526-23.994 14.948-35.237 23.55-1.132.865-2.395 1.643-3.292 2.717-9.902 11.862-22.971 16.783-37.899 19.393-29.167 5.101-54.75 18.399-77.692 36.931-1.261 1.018-2.612 1.96-3.713 3.133-4.801 5.113-10.235 5.47-16.586 3.185-16.448-5.916-33.39-9.497-50.942-9.714-16.202-.2-31.909 2.443-47.03 8.358Zm-.367-.93c15.243-5.963 31.076-8.63 47.41-8.428 17.663.218 34.714 3.819 51.267 9.773 5.939 2.136 11.03 1.852 15.519-2.928 1.133-1.206 2.517-2.18 3.813-3.227 23.077-18.64 48.812-32.007 78.148-37.138 14.688-2.568 27.562-7.378 37.304-19.048.944-1.131 2.262-1.961 3.452-2.872 11.268-8.62 23.323-16.059 35.312-23.602 1.884-1.184 4.349-1.827 5.137-4.31-.652-1.951-2.267-2.973-3.522-4.267-17.391-17.936-38.117-31.747-57.917-46.694-26.094-19.697-51.81-39.804-73.448-64.564-.749-.858-1.462-1.858-2.776-1.951-3.353 3.331-3.96 4.979-4.278 11.622-.325 6.784-2.921 9.726-8.688 9.843-7.616.155-11.919-5.753-10.605-14.478 1.038-6.89 4.354-12.878 7.321-19.026 3.006-6.228 1.862-9.98-4.664-14.344-.677.937-1.398 2.058-2.238 3.08-12.858 15.649-29.207 26.122-48.384 32.238-16.539 5.274-33.685 7.813-50.722 10.816-36.923 6.51-74.147 10.724-111.561 12.357-35.932 1.569-70.347-4.655-100.938-25.277-2.82-1.901-5.735-2.103-8.088.653-2.669 3.128-4.834 6.603-5.765 10.919 2.628.862 5.023 1.543 7.343 2.425 10.923 4.15 16.671 12.328 17.921 23.722.752 6.85-2.384 11.563-7.876 12.6-6.522 1.231-10.457-2.231-11.478-10.438-.551-4.433-2.22-7.642-7.026-8.361-5.181-.776-8.729 1.063-10.872 5.897-1.077 2.427-1.852 4.991-2.698 7.516-10.649 31.782-22.711 63.012-38.205 92.765-21.495 41.278-37.951 84.376-48.423 129.734-5.168 22.381-8.941 44.987-11.425 67.836-1.784 16.402-2.648 32.838-3.368 49.303-1.028 23.535.328 46.929 4.123 70.147 5.171 31.642 17.615 60.636 33.188 88.39 35.043 62.453 85.687 107.317 152.024 134.376 33.333 13.596 67.963 22.048 103.649 26.689 25.243 3.283 50.493 3.592 75.754 1.499 24.221-2.007 48.136-6.172 71.87-11.555 58.03-13.161 112.819-34.136 162.455-67.332 38.377-25.666 67.3-59.379 84.164-102.763 12.684-32.629 16.994-66.942 19.598-101.514 1.78-23.617 1.199-47.236-.741-70.866-3.079-37.509-10.449-74.1-22.324-109.781-13.291-39.937-33.106-76.313-59.93-108.812-4.52-5.477-5.65-5.743-11.643-2.043-7.513 4.639-14.995 9.33-22.414 14.117-4.548 2.935-9.534 5.246-13.57 8.922.798 1.478 2.021 1.629 3.131 1.73 5.973.546 11.234 3.032 16.249 6.048 13.024 7.835 16.482 25.786 6.574 37.317-11.363 13.224-26.28 14.272-42.135 10.428-13.955-3.383-23.418-11.569-27.008-25.765-.905-3.581-1.166-6.536-6.511-5.292-23.01 5.355-44.27 14.516-63.519 28.206-4.68 3.328-9.586 6.502-13.509 11.28 3.027 2.967 4.751 6.901 9.527 6.991 16.447.313 30.658 6.954 44.114 15.693 24.94 16.198 45.481 37.438 66.483 58.135 4.131 4.07 4.122 8.458.583 12.429-4.284 4.806-8.565 5.306-13.548 1.37-5.378-4.25-9.897-9.403-14.631-14.327-14.328-14.903-28.624-29.865-46.204-41.09-12.177-7.775-25.024-12.875-40.042-10.71-14.529 2.094-24.524 12.636-24.311 27.019.218 14.717 7.375 26.036 18.339 35.133 10.32 8.562 21.903 15.14 34.152 20.569 2.885 1.279 5.892 2.467 8.453 4.255 4.39 3.065 5.204 8.547 2.438 13.348-2.249 3.902-5.801 5.179-10.797 2.96-3.801-1.688-6.219-.761-8.662 2.179-4.908 5.906-10.224 11.495-16.37 16.084-40.902 30.54-86.401 41.665-136.734 31.938-14.1-2.725-27.744-6.984-41.171-12.05-7.368-2.779-14.79-3.739-22.128.635-5.324 3.173-9.679 2.36-12.216-1.772-3.006-4.898-1.86-10.921 3.016-14.05 2.781-1.784 5.883-3.102 8.923-4.444 14.689-6.484 27.506-15.03 34.18-30.492 4.674-10.828 4.907-21.355-2.361-31.223-7.149-9.707-17.149-12.344-28.677-11.567-13.132.885-24.418 6.234-34.849 13.732-13.3 9.56-25.26 20.632-36.515 32.525-6.064 6.408-12.532 12.441-18.952 18.5-2.601 2.456-5.7 4.082-9.533 3.069-7.913-2.093-9.825-10.636-3.496-16.798 13.012-12.669 26.038-25.334 39.367-37.666 16.034-14.834 33.354-27.664 55.198-32.869 4.179-.996 6.033-4.241 6.953-8.307 3.003-13.272 8.867-25.129 18.43-34.904 13.025-13.316 28.638-22.72 46.584-29.867Z" style="fill:#fff5f5"/><path d="M304.492 810.106c-39.448-15.115-66.66-42.651-86.506-78.26-8.859-15.893-15.487-32.832-22.917-49.392-7.777-17.335-17.505-33.292-31.383-46.513-19.898-18.958-43.35-24.244-69.723-18.283-11.829 2.674-23.419 6.529-35.865 5.382-10.01-.923-17.815-6.828-18.819-14.89-1.337-10.734 4.48-20.46 14.248-23.623 16.767-5.429 33.802-5.069 50.856-1.85 16.835 3.177 32.709 9.052 47.294 18.151 9.694 6.048 17.081 14.219 22.356 24.379 14.368 27.674 33.861 51.403 56.508 72.625 5.414 5.073 9.656 10.598 12.867 17.445 16.032 34.197 42.772 57.293 77 72.134 23.291 10.1 47.513 16.302 73.117 16.024 15.642-.169 30.76-3.275 45.478-8.369 3.549-1.229 7.022-1.866 10.746-1.632 12.628.791 25.26 1.505 38.964 2.312-8.021 3.547-15.506 5.884-23.018 8.047-24.335 7.007-48.948 12.829-74.145 15.716-29.694 3.403-58.837 1.115-87.058-9.403Z" style="fill:#fff5f5"/><path d="M304.134 811.04c-39.678-15.203-67.059-42.89-87.022-78.707-8.872-15.919-15.514-32.883-22.955-49.469-7.724-17.217-17.379-33.069-31.161-46.199-19.637-18.71-42.785-23.915-68.813-18.032-11.931 2.697-23.624 6.56-36.177 5.402-10.53-.97-18.663-7.281-19.72-15.761-1.398-11.23 4.714-21.39 14.933-24.698 16.93-5.482 34.129-5.132 51.35-1.882 16.957 3.2 32.946 9.12 47.637 18.286 9.849 6.144 17.355 14.444 22.715 24.766 14.315 27.573 33.74 51.212 56.304 72.356 5.508 5.161 9.822 10.784 13.088 17.751 15.925 33.968 42.494 56.899 76.493 71.641 23.161 10.043 47.247 16.218 72.708 15.941 15.533-.168 30.546-3.255 45.162-8.314 3.677-1.273 7.277-1.927 11.136-1.685 12.626.791 25.258 1.505 38.959 2.312a1 1 0 0 1 .346 1.912c-8.065 3.567-15.592 5.919-23.145 8.094-24.388 7.023-49.056 12.855-74.308 15.749-29.852 3.421-59.15 1.114-87.521-9.46l-.009-.003Zm.358-.934c28.221 10.518 57.364 12.806 87.058 9.403 25.197-2.887 49.81-8.709 74.145-15.716 7.512-2.163 14.997-4.5 23.018-8.047-13.704-.807-26.336-1.521-38.964-2.312-3.724-.234-7.197.403-10.746 1.632-14.718 5.094-29.836 8.2-45.478 8.369-25.604.278-49.826-5.924-73.117-16.024-34.228-14.841-60.968-37.937-77-72.134-3.211-6.847-7.453-12.372-12.867-17.445-22.647-21.222-42.14-44.951-56.508-72.625-5.275-10.16-12.662-18.331-22.356-24.379-14.585-9.099-30.459-14.974-47.294-18.151-17.054-3.219-34.089-3.579-50.856 1.85-9.768 3.163-15.585 12.889-14.248 23.623 1.004 8.062 8.809 13.967 18.819 14.89 12.446 1.147 24.036-2.708 35.865-5.382 26.373-5.961 49.825-.675 69.723 18.283 13.878 13.221 23.606 29.178 31.383 46.513 7.43 16.56 14.058 33.499 22.917 49.392 19.846 35.609 47.058 63.145 86.506 78.26Zm400.111-560.953c-.444-2.905.755-4.43 2.681-4.728 9.015-1.395 18.149-2.837 26.485 2.477 6.148 3.918 5.973 7.742-.228 11.643-9.726 6.119-23.375 1.69-28.938-9.392Z" style="fill:#fff5f5"/><path d="M703.614 249.304c-.267-1.75.007-3.078.591-4.02.639-1.03 1.657-1.651 2.926-1.847 9.252-1.432 18.62-2.833 27.176 2.621 3.479 2.218 5.035 4.51 4.978 6.698-.056 2.174-1.726 4.443-5.212 6.636-10.199 6.416-24.53 1.83-30.364-9.79a1.007 1.007 0 0 1-.095-.298Zm.989-.151c5.563 11.082 19.212 15.511 28.938 9.392 6.201-3.901 6.376-7.725.228-11.643-8.336-5.314-17.47-3.872-26.485-2.477-1.926.298-3.125 1.823-2.681 4.728Z" style="fill:#fff5f5"/><path d="M377.456 213.006c3.448 2.803 3.927 5.697 2.018 8.765-1.524 2.45-3.883 3.637-6.777 2.579-2.942-1.076-4.563-3.236-4.034-6.49.49-3.022 1.908-5.317 5.407-5.303 1.129.005 2.258.292 3.386.449Z" style="fill:#fff"/><path d="M378.087 212.23c1.942 1.579 3.013 3.208 3.365 4.85.363 1.694-.019 3.435-1.129 5.219-1.789 2.876-4.572 4.232-7.969 2.99-1.696-.62-2.997-1.573-3.812-2.82-.831-1.271-1.177-2.857-.866-4.769.338-2.087 1.11-3.849 2.504-4.94.962-.753 2.226-1.21 3.894-1.203 1.174.005 2.348.295 3.521.459.18.025.351.099.492.214Zm-.631.776c-1.128-.157-2.257-.444-3.386-.449-3.499-.014-4.917 2.281-5.407 5.303-.529 3.254 1.092 5.414 4.034 6.49 2.894 1.058 5.253-.129 6.777-2.579 1.909-3.068 1.43-5.962-2.018-8.765Zm188.571-27.181c.697-5.164 3.564-6.096 7.302-5.381 3.693.707 4.611 3.396 4.227 6.714-.388 3.356-2.49 4.845-5.753 4.891-4.223.059-5.981-2.173-5.776-6.224Z" style="fill:#fff"/><path d="M565.036 185.691c.402-2.981 1.507-4.7 2.974-5.611 1.463-.908 3.357-1.03 5.507-.618 1.754.335 2.967 1.073 3.778 2.06 1.182 1.436 1.52 3.456 1.255 5.751-.23 1.986-1 3.404-2.162 4.348-1.137.924-2.681 1.401-4.571 1.428-2.475.035-4.205-.666-5.309-1.905-1.09-1.224-1.598-3.026-1.48-5.37.002-.028.004-.056.008-.083Zm.991.134c-.205 4.051 1.553 6.283 5.776 6.224 3.263-.046 5.365-1.535 5.753-4.891.384-3.318-.534-6.007-4.227-6.714-3.738-.715-6.605.217-7.302 5.381Z" style="fill:#fff"/><path d="M474.367 418.359c-6.951-37.906-11.656-75.14-10.352-112.962.195-5.657 2.145-8.98 7.308-11.042 5.055-2.019 9.797-4.866 15.444-5.477 1.298 2.7.81 5.398.775 7.993-.345 25.335.525 50.592 4.041 75.728 3.508 25.084 8.937 49.743 15.915 74.073 1.764 6.151 1.637 6.515-4.96 6.299-5.818-.19-11.625-.719-17.437-1.1-2.931-.192-4.389-1.784-4.943-4.66-1.856-9.631-3.85-19.236-5.791-28.852Z" style="fill:#b1c9c7"/><path d="M473.383 418.54c-6.964-37.979-11.674-75.284-10.368-113.178.105-3.04.706-5.446 1.95-7.376 1.259-1.953 3.179-3.438 5.987-4.559 5.139-2.053 9.967-4.922 15.707-5.543a1 1 0 0 1 1.009.561c1.372 2.852.911 5.697.874 8.439-.344 25.284.522 50.491 4.031 75.577 3.502 25.038 8.921 49.651 15.886 73.936.556 1.936.921 3.329.99 4.32.064.934-.123 1.605-.501 2.099-.378.496-.977.856-1.907 1.034-.987.19-2.455.189-4.536.121-5.829-.19-11.647-.72-17.47-1.102-1.746-.114-3.042-.675-3.996-1.606-.929-.908-1.541-2.192-1.863-3.862-1.855-9.629-3.849-19.231-5.789-28.844l-.004-.017Zm.984-.181c1.941 9.616 3.935 19.221 5.791 28.852.554 2.876 2.012 4.468 4.943 4.66 5.812.381 11.619.91 17.437 1.1 6.597.216 6.724-.148 4.96-6.299-6.978-24.33-12.407-48.989-15.915-74.073-3.516-25.136-4.386-50.393-4.041-75.728.035-2.595.523-5.293-.775-7.993-5.647.611-10.389 3.458-15.444 5.477-5.163 2.062-7.113 5.385-7.308 11.042-1.304 37.822 3.401 75.056 10.352 112.962Zm68.807-134.804c10.531 1.8 19.993 4.116 28.81 8.918-1.206 2.577-3.527 2.889-5.393 3.724-16.806 7.517-34.408 12.383-52.513 15.51-5.639.974-7.01-.079-7.129-5.708-.124-5.824.058-11.653-.013-17.478-.053-4.391 2.539-5.892 6.343-5.94 9.978-.128 19.979-.813 29.895.974Z" style="fill:#b1c9c7"/><path d="M543.347 282.57c10.643 1.82 20.204 4.171 29.115 9.025a1 1 0 0 1 .428 1.302c-.848 1.811-2.152 2.681-3.542 3.287-.789.344-1.605.593-2.349.926-16.882 7.551-34.563 12.441-52.751 15.582-3.222.557-5.213.385-6.427-.581-1.223-.972-1.803-2.851-1.872-6.091-.124-5.826.059-11.659-.013-17.487-.024-2.041.479-3.535 1.331-4.608 1.269-1.597 3.368-2.311 6-2.344 10.039-.129 20.102-.808 30.08.989Zm-.173.985c-9.916-1.787-19.917-1.102-29.895-.974-3.804.048-6.396 1.549-6.343 5.94.071 5.825-.111 11.654.013 17.478.119 5.629 1.49 6.682 7.129 5.708 18.105-3.127 35.707-7.993 52.513-15.51 1.866-.835 4.187-1.147 5.393-3.724-8.817-4.802-18.279-7.118-28.81-8.918Zm64.782 123.625c4.535.834 2.252 2.609.956 3.922-5.029 5.093-10.374 9.83-16.108 14.138-17.502 13.148-37.326 20.858-58.573 25.378-5.208 1.107-6.47-1.606-6.691-5.786.674-1.576 2.154-1.714 3.378-1.937 28.263-5.143 53.3-17.24 75.734-34.988.385-.305.867-.488 1.304-.727Z" style="fill:#b1c9c7"/><path d="M608.137 406.196c1.289.237 2.103.567 2.589.91.522.367.77.787.871 1.202.139.574-.019 1.207-.439 1.824-.389.573-1.027 1.159-1.534 1.672-5.064 5.128-10.446 9.898-16.22 14.235-17.62 13.237-37.574 21.007-58.965 25.557-2.425.515-4.108.248-5.28-.484-1.745-1.091-2.465-3.327-2.618-6.227a1 1 0 0 1 .079-.446c.837-1.956 2.6-2.251 4.119-2.527 28.099-5.114 52.989-17.144 75.292-34.789.429-.339.958-.554 1.444-.82a.997.997 0 0 1 .662-.107Zm-.181.984c-.437.239-.919.422-1.304.727-22.434 17.748-47.471 29.845-75.734 34.988-1.224.223-2.704.361-3.378 1.937.221 4.18 1.483 6.893 6.691 5.786 21.247-4.52 41.071-12.23 58.573-25.378 5.734-4.308 11.079-9.045 16.108-14.138 1.296-1.313 3.579-3.088-.956-3.922Zm-90.579-76.784c17.747-2.981 34.119-7.833 50.148-13.593 1.2 1.993-.017 3.024-.579 4.072-4.244 7.916-6.918 16.212-6.209 25.315.213 2.738-.878 4.296-3.372 5.363-13.784 5.896-27.972 10.602-42.351 14.796-3.233.942-4.857-.085-5.18-3.245-.911-8.917-1.75-17.841-2.573-26.767-.278-3.023 1.232-4.683 4.203-5.091 1.973-.271 3.942-.566 5.913-.85Z" style="fill:#b1c9c7"/><path d="m517.223 329.408.007-.002c17.679-2.971 33.988-7.806 49.957-13.544a.998.998 0 0 1 1.195.425c1.484 2.468.141 3.763-.555 5.06-4.152 7.746-6.787 15.858-6.093 24.765.127 1.629-.164 2.9-.827 3.928-.654 1.014-1.687 1.807-3.148 2.432-13.822 5.912-28.048 10.632-42.465 14.837-1.975.575-3.454.455-4.493-.197-1.063-.667-1.76-1.932-1.962-3.906-.911-8.92-1.751-17.848-2.574-26.777-.168-1.833.25-3.241 1.116-4.264.853-1.008 2.172-1.666 3.947-1.91 1.967-.27 3.93-.564 5.895-.847Zm.154.988c-1.971.284-3.94.579-5.913.85-2.971.408-4.481 2.068-4.203 5.091.823 8.926 1.662 17.85 2.573 26.767.323 3.16 1.947 4.187 5.18 3.245 14.379-4.194 28.567-8.9 42.351-14.796 2.494-1.067 3.585-2.625 3.372-5.363-.709-9.103 1.965-17.399 6.209-25.315.562-1.048 1.779-2.079.579-4.072-16.029 5.76-32.401 10.612-50.148 13.593Zm38.512 42.377c11.674-4.525 11.678-4.528 18.905 4.52a88.227 88.227 0 0 0 14.107 14.071c2.913 2.314 2.622 4.088-.272 6.205-18.991 13.897-40.125 22.698-63.212 27.005-2.799.523-4.155-.606-4.696-3.059-2.25-10.213-4.374-20.453-6.677-30.654-.81-3.59 1.066-4.633 4.026-5.461 12.812-3.581 25.503-7.552 37.819-12.627Z" style="fill:#b1c9c7"/><path d="M555.528 371.84c3.566-1.382 6.065-2.344 8.012-2.773 1.45-.319 2.626-.353 3.702-.096 1.34.32 2.539 1.094 3.899 2.456 1.218 1.221 2.598 2.943 4.434 5.242a87.23 87.23 0 0 0 13.948 13.912c1.813 1.44 2.505 2.789 2.417 4.03-.086 1.215-.957 2.475-2.721 3.765-19.113 13.986-40.382 22.847-63.618 27.181-1.734.324-3.011.074-3.948-.574-.938-.649-1.573-1.732-1.908-3.253-2.25-10.211-4.374-20.45-6.676-30.648-.396-1.754-.21-3.005.318-3.946.761-1.354 2.332-2.117 4.414-2.699 12.774-3.571 25.427-7.528 37.707-12.589l.02-.008Zm.361.933c-12.316 5.075-25.007 9.046-37.819 12.627-2.96.828-4.836 1.871-4.026 5.461 2.303 10.201 4.427 20.441 6.677 30.654.541 2.453 1.897 3.582 4.696 3.059 23.087-4.307 44.221-13.108 63.212-27.005 2.894-2.117 3.185-3.891.272-6.205a88.227 88.227 0 0 1-14.107-14.071c-7.227-9.048-7.231-9.045-18.905-4.52Zm-122.281-26.817c-4.043-1.277-4.932-3.15-3.826-6.659 2.837-9.002 7.493-16.824 14.928-23.583v34.465c-3.742-.631-7.301-2.775-11.102-4.223Z" style="fill:#b1c9c7"/><path d="m433.285 346.903-.007-.002c-2.33-.741-3.708-1.72-4.389-2.953-.701-1.268-.718-2.866-.061-4.951 2.891-9.17 7.635-17.137 15.209-24.023a1 1 0 0 1 1.673.74v34.465a1.002 1.002 0 0 1-1.166.986c-3.794-.639-7.408-2.791-11.259-4.262Zm.323-.947c3.801 1.448 7.36 3.592 11.102 4.223v-34.465c-7.435 6.759-12.091 14.581-14.928 23.583-1.106 3.509-.217 5.382 3.826 6.659Zm25.727 99.68c-5.878-.773-10.907-2.313-16.432-5.498l13.057-14.57c1.184 7.376 4.176 13.332 3.375 20.068Z" style="fill:#b1c9c7"/><path d="M459.205 446.627c-6.01-.79-11.152-2.366-16.802-5.623a1 1 0 0 1-.245-1.534l13.058-14.569a.999.999 0 0 1 1.732.509c1.199 7.474 4.191 13.518 3.38 20.344a1.002 1.002 0 0 1-1.123.873Zm.13-.991c.801-6.736-2.191-12.692-3.375-20.068l-13.057 14.57c5.525 3.185 10.554 4.725 16.432 5.498Z" style="fill:#b1c9c7"/><path d="M874.247 400.057c2.845 22.254 4.834 44.176 4.667 66.13-.372 49.187-5.477 97.735-24.172 143.86-15.896 39.22-41.307 71.419-74.604 97.205-44.014 34.088-93.854 56.796-146.818 73.027-23.742 7.276-47.912 12.719-72.526 16.133-1.622.225-3.263.761-4.748 1.463-32.001 15.112-65.252 26.856-99.271 36.415-26.509 7.449-53.571 11.488-81.106 13.205-55.702 3.474-103.462-14.437-144.095-52.08-15.982-14.805-25.572-33.901-34.188-53.538-8.625-19.657-15.766-39.998-26.923-58.494-6.848-11.354-14.637-21.781-25.747-29.497-13.581-9.432-28.556-11.265-44.373-8.97-10.04 1.457-19.797 4.386-29.892 5.724-15.373 2.037-28.993-1.775-41.364-10.88-12.106-8.91-18.579-29.724-4.065-48.497 13.721-17.749 31.356-25.48 53.353-24.778 22.811.727 44.272 6.971 65.236 15.437 2.399.969 4.627 2.63 7.417 2.372 1.515-2.167.075-4.024-.533-5.763a304.815 304.815 0 0 1-15.406-68.509c-2.596-24.375-2.857-48.781-.706-73.286 1.79-20.386 3.942-40.685 7.205-60.884 9.033-55.906 25.435-109.535 50.182-160.474 18.361-37.794 34.717-76.391 49.282-115.79 5.621-15.203 13.293-29.441 22.889-42.577 6.24-8.54 10.557-9.127 19.107-2.705 22.953 17.236 49.043 25.508 77.467 27.478 23.573 1.635 46.819-1.522 70.159-3.817 28.981-2.851 57.778-6.905 86.373-12.341 25.042-4.759 47.354-14.665 63.638-35.322a72.444 72.444 0 0 0 6.619-9.982c4.673-8.502 16.511-9.078 21.171-.57 11.37 20.759 27.067 37.866 44.026 54.007 18.756 17.851 39.423 33.336 60.236 48.634 19.219 14.127 37.739 29.087 55.159 45.397 6.775 6.343 7.628 6.427 15.746 2.306 27.829-14.128 56.893-25.321 86.055-36.284 11.799-4.436 22.833-10.177 31.866-19.193 4.009-4.001 7.345-8.46 8.998-13.755-1.835-2.195-3.755-1.516-5.478-1.272-11.944 1.689-23.344-.752-34.063-5.577-19.033-8.567-23.7-32.445-10.103-49.472 11.325-14.183 31.308-17.349 47.342-7.423 10.228 6.332 17.394 15.355 22.627 26.063 3.583 7.333 4.882 7.832 12.432 5.085 16.923-6.158 32.081-15.413 46.273-26.373 3.627-2.802 7.342-5.215 12.349-3.27 3.91 1.518 6.39 4.094 7.26 8.184.85 4.012-.65 6.899-3.83 9.509-19.021 15.604-40.031 27.584-63.592 34.782-5.222 1.596-7.787 3.979-8.916 9.622-3.952 19.746-16.595 33.007-33.919 42.051-22.76 11.883-46.761 21.053-70.166 31.528-11.856 5.307-23.552 10.969-35.378 16.343-4.597 2.089-3.148 4.429-.871 7.31 17.843 22.58 32.894 46.898 45.037 72.994 15.611 33.547 26.18 68.679 32.745 105.047 1.417 7.85 2.611 15.742 3.937 24.062M476.794 278.16c15.243-5.963 31.077-8.629 47.41-8.428 17.664.219 34.715 3.819 51.268 9.773 5.938 2.137 11.029 1.853 15.518-2.928 1.133-1.206 2.517-2.18 3.814-3.227 23.076-18.64 48.811-32.007 78.147-37.137 14.688-2.569 27.562-7.379 37.305-19.049.943-1.131 2.261-1.961 3.451-2.871 11.268-8.62 23.323-16.06 35.312-23.602 1.884-1.185 4.349-1.828 5.137-4.311-.651-1.951-2.267-2.973-3.522-4.267-17.39-17.936-38.116-31.747-57.917-46.694-26.094-19.697-51.81-39.804-73.448-64.564-.749-.858-1.461-1.857-2.776-1.951-3.353 3.331-3.96 4.98-4.278 11.622-.324 6.784-2.921 9.726-8.688 9.843-7.615.155-11.919-5.753-10.605-14.478 1.038-6.89 4.354-12.878 7.321-19.025 3.006-6.229 1.862-9.981-4.664-14.345-.677.938-1.397 2.058-2.238 3.081-12.858 15.648-29.206 26.121-48.384 32.237-16.539 5.274-33.685 7.813-50.722 10.817-36.923 6.51-74.147 10.723-111.561 12.356-35.932 1.569-70.346-4.655-100.938-25.277-2.82-1.901-5.735-2.102-8.087.654-2.67 3.127-4.835 6.603-5.766 10.919 2.628.861 5.024 1.542 7.343 2.424 10.923 4.15 16.671 12.328 17.921 23.722.752 6.85-2.384 11.563-7.876 12.6-6.522 1.231-10.457-2.231-11.478-10.438-.551-4.433-2.22-7.642-7.026-8.361-5.181-.776-8.729 1.063-10.872 5.897-1.076 2.427-1.852 4.992-2.698 7.516-10.649 31.782-22.71 63.012-38.205 92.766-21.495 41.277-37.951 84.375-48.423 129.733-5.168 22.381-8.941 44.987-11.425 67.836-1.784 16.402-2.647 32.838-3.367 49.303-1.029 23.535.328 46.93 4.122 70.148 5.171 31.641 17.615 60.635 33.188 88.39 35.043 62.452 85.687 107.316 152.024 134.375 33.333 13.596 67.963 22.048 103.649 26.69 25.243 3.282 50.493 3.592 75.755 1.498 24.22-2.007 48.135-6.172 71.869-11.555 58.03-13.161 112.819-34.136 162.455-67.332 38.377-25.666 67.3-59.379 84.165-102.763 12.683-32.628 16.993-66.942 19.598-101.514 1.779-23.617 1.199-47.236-.742-70.866-3.079-37.509-10.449-74.099-22.324-109.781-13.291-39.937-33.105-76.312-59.93-108.812-4.52-5.477-5.65-5.742-11.643-2.043-7.513 4.639-14.995 9.33-22.414 14.118-4.547 2.934-9.534 5.245-13.57 8.921.798 1.478 2.021 1.629 3.131 1.731 5.973.546 11.234 3.031 16.249 6.048 13.024 7.834 16.482 25.785 6.575 37.316-11.364 13.225-26.281 14.272-42.135 10.428-13.956-3.382-23.419-11.569-27.009-25.765-.905-3.581-1.166-6.536-6.511-5.292-23.009 5.356-44.27 14.516-63.519 28.206-4.68 3.329-9.586 6.502-13.509 11.281 3.027 2.966 4.751 6.9 9.527 6.99 16.447.313 30.658 6.954 44.114 15.693 24.94 16.199 45.481 37.438 66.483 58.135 4.131 4.071 4.122 8.458.583 12.429-4.284 4.806-8.565 5.307-13.547 1.37-5.379-4.25-9.898-9.403-14.632-14.326-14.328-14.904-28.624-29.866-46.203-41.09-12.178-7.776-25.025-12.876-40.043-10.711-14.529 2.095-24.524 12.636-24.311 27.019.218 14.717 7.375 26.036 18.339 35.133 10.321 8.563 21.903 15.141 34.152 20.569 2.886 1.279 5.892 2.467 8.453 4.255 4.39 3.065 5.204 8.547 2.438 13.348-2.249 3.902-5.801 5.18-10.797 2.96-3.801-1.688-6.219-.761-8.662 2.179-4.908 5.906-10.223 11.495-16.369 16.084-40.903 30.54-86.402 41.666-136.735 31.938-14.099-2.724-27.743-6.984-41.171-12.049-7.368-2.78-14.79-3.74-22.128.634-5.324 3.174-9.679 2.361-12.215-1.772-3.006-4.898-1.861-10.921 3.015-14.05 2.781-1.784 5.883-3.102 8.923-4.444 14.689-6.484 27.506-15.03 34.18-30.492 4.674-10.828 4.907-21.354-2.361-31.223-7.149-9.706-17.149-12.344-28.677-11.567-13.132.885-24.418 6.234-34.849 13.732-13.3 9.56-25.26 20.632-36.515 32.526-6.064 6.407-12.532 12.44-18.952 18.5-2.601 2.455-5.7 4.082-9.533 3.068-7.913-2.093-9.825-10.636-3.496-16.798 13.013-12.669 26.038-25.334 39.368-37.666 16.033-14.834 33.353-27.664 55.197-32.869 4.18-.996 6.033-4.241 6.953-8.307 3.003-13.271 8.867-25.129 18.43-34.904 13.025-13.315 28.639-22.72 46.584-29.867M305.555 816.891c28.221 10.519 57.364 12.807 87.058 9.404 25.197-2.888 49.81-8.709 74.145-15.717 7.512-2.163 14.997-4.5 23.018-8.047-13.703-.807-26.336-1.521-38.964-2.312-3.724-.233-7.197.404-10.746 1.632-14.717 5.094-29.836 8.2-45.478 8.369-25.604.278-49.826-5.924-73.117-16.023-34.228-14.842-60.968-37.937-77-72.135-3.211-6.847-7.453-12.372-12.867-17.445-22.647-21.222-42.139-44.951-56.508-72.625-5.275-10.159-12.662-18.331-22.356-24.379-14.585-9.099-30.459-14.974-47.294-18.151-17.054-3.218-34.089-3.578-50.856 1.85-9.768 3.163-15.585 12.89-14.248 23.624 1.004 8.061 8.809 13.966 18.819 14.889 12.446 1.147 24.036-2.708 35.865-5.382 26.374-5.961 49.825-.675 69.723 18.283 13.878 13.221 23.606 29.178 31.384 46.513 7.429 16.56 14.058 33.499 22.916 49.392 19.847 35.609 47.058 63.146 86.506 78.26M475.43 425.144c1.941 9.616 3.935 19.221 5.791 28.853.554 2.875 2.012 4.468 4.943 4.66 5.812.38 11.619.91 17.437 1.1 6.597.215 6.724-.148 4.96-6.3-6.978-24.33-12.407-48.988-15.915-74.073-3.516-25.135-4.385-50.393-4.041-75.728.035-2.595.523-5.293-.775-7.993-5.647.612-10.389 3.458-15.444 5.478-5.163 2.062-7.113 5.384-7.308 11.041-1.304 37.822 3.401 75.056 10.352 112.962m81.523-45.586c-12.317 5.075-25.008 9.046-37.82 12.628-2.96.827-4.836 1.87-4.025 5.461 2.302 10.2 4.426 20.44 6.676 30.653.541 2.453 1.897 3.582 4.696 3.059 23.088-4.306 44.222-13.108 63.212-27.004 2.894-2.118 3.185-3.892.272-6.205a88.233 88.233 0 0 1-14.107-14.072c-7.227-9.047-7.23-9.045-18.904-4.52m-38.512-42.377c-1.971.284-3.941.579-5.914.85-2.971.408-4.481 2.068-4.203 5.091.823 8.926 1.662 17.851 2.573 26.768.323 3.159 1.947 4.187 5.18 3.244 14.379-4.193 28.567-8.9 42.351-14.796 2.494-1.067 3.586-2.624 3.372-5.363-.709-9.103 1.965-17.399 6.209-25.315.562-1.048 1.779-2.078.579-4.072-16.029 5.76-32.401 10.612-50.147 13.593m25.796-46.841c-9.916-1.786-19.917-1.102-29.894-.974-3.805.048-6.397 1.549-6.343 5.94.071 5.825-.112 11.655.012 17.478.12 5.629 1.49 6.682 7.129 5.708 18.105-3.127 35.707-7.992 52.513-15.51 1.867-.835 4.187-1.146 5.393-3.724-8.817-4.802-18.279-7.117-28.81-8.918M878.986 56.462c-7.851 8.947-5.094 18.553 6.508 20.616 7.281 1.294 14.868 1.148 22.315 1.12 4.224-.015 5.737-2.727 3.819-6.37-2.938-5.58-6.225-11.001-11.193-15.107-6.873-5.679-13.563-5.894-21.449-.259M609.019 413.965c-.437.239-.919.422-1.304.727-22.434 17.749-47.471 29.845-75.733 34.989-1.225.223-2.705.361-3.379 1.936.221 4.18 1.483 6.894 6.691 5.786 21.248-4.519 41.071-12.23 58.573-25.378 5.734-4.307 11.079-9.045 16.108-14.138 1.297-1.313 3.579-3.088-.956-3.922M326.944 768.677l-27.436-12.879c23.607 22.55 51.709 33.727 84.283 33.545-19.161-5.539-37.798-12.549-56.847-20.666m378.722-512.738c5.563 11.081 19.212 15.511 28.938 9.391 6.201-3.901 6.376-7.725.229-11.643-8.337-5.314-17.471-3.872-26.486-2.477-1.926.298-3.125 1.823-2.681 4.729m-270.995 96.802c3.801 1.448 7.36 3.592 11.102 4.224v-34.466c-7.435 6.76-12.091 14.582-14.928 23.583-1.106 3.51-.216 5.383 3.826 6.659m25.727 99.68c.801-6.736-2.191-12.692-3.374-20.068l-13.058 14.57c5.526 3.185 10.555 4.725 16.432 5.498Z" style="fill-rule:nonzero" transform="translate(-1.063 -6.785)"/><path d="M367.814 578.649c21.427-8.898 41.155-6.076 58.254 8.619 21.806 18.741 32.405 43.417 34.236 71.907.44 6.857-2.569 10.292-8.313 10.75-5.71.456-9.491-2.973-10.348-9.734-2.28-17.981-7.762-34.706-18.94-49.255-9.265-12.059-20.575-19.843-36.701-17.682-6.41.859-12.267 3.224-17.421 7.001-5.909 4.329-7.278 10.469-5.723 17.38 5.243 23.29 16.731 43.323 32.026 61.378 4.924 5.813 5.378 9.925 1.845 14.836-3.21 4.464-9.388 5.442-13.012 1.341-19.36-21.905-36.452-45.102-41.181-75.089-2.752-17.45 3.848-30.791 19.5-38.76 1.779-.906 3.609-1.712 5.778-2.692Zm458.092-85.462c-11.091-11.759-31.976-11.374-44.966.673-10.547 9.782-14.412 22.895-17.531 36.294-2.445 10.502-2.607 21.072-.473 31.664a17.44 17.44 0 0 1 .336 3.472c-.015 5.533-3.294 9.377-8.463 10.002-5.859.708-9.808-1.803-10.67-7.872-4.095-28.827-.737-56.109 17.445-80.133 15.688-20.73 44.16-27.767 67.723-16.731 12.734 5.964 18.639 16.356 20.042 29.971 2.109 20.475-3.071 39.615-10.363 58.368-2.832 7.285-5.738 14.569-9.566 21.418-3.694 6.611-8.17 8.568-13.296 5.92-5.359-2.769-7.027-8.027-3.839-14.571 7.915-16.244 14.591-32.9 16.867-50.939 1.162-9.215 2.108-18.626-3.246-27.536ZM513.899 247.23c-7.911 2.6-15.498 2.596-22.927 0-4.634-1.619-8.147-.817-11.803 2.501-11.503 10.437-29.696 11.724-42.688 3.356-5.995-3.862-7.769-8.067-5.355-12.7 2.714-5.209 8.421-6.957 14.633-4.011 5.408 2.565 10.645 4.889 16.593 1.749 5.85-3.089 6.163-5.251 1.28-9.412-7.189-6.128-9.446-13.597-6.446-21.342 3.006-7.765 12.056-12.423 22.187-12.211 17.125.359 24.496 18.99 15.786 29.991-.493.621-.747 1.431-1.102 2.134 5.798 3.686 12.491 3.203 17.497-1.404 2.191-2.015 4.019-4.428 5.975-6.693 3.114-3.608 6.796-4.686 11.124-2.403 4.31 2.272 6.394 7.231 4.751 11.878-3.284 9.286-10.225 14.913-19.505 18.567Z" style="fill-rule:nonzero" transform="translate(-1.063 -6.785)"/><path d="M652.369 175.213c12.895 5.067 18.301 13.611 17.89 27.806-.331 11.422-7.318 20.764-18.196 24.329-17.286 5.666-34.171-6.405-34.409-24.6-.183-13.971 5.111-22.995 16.144-27.062 5.941-2.189 12.068-2.086 18.571-.473ZM336.875 286.76c-12.378 12.846-30.358 13.085-41.206.828-9.682-10.939-7.929-31.057 3.49-40.047 11.927-9.391 29.452-6.877 38.513 5.525 6.372 8.722 6.13 22.999-.797 33.694Z" style="fill:#dd9797;fill-rule:nonzero" transform="translate(-1.063 -6.785)"/><path d="M575.654 170.276c10.012-1.076 17.242 2.958 19.99 10.817 3.091 8.84.413 18.445-6.347 22.762-6.928 4.425-17.114 3.77-22.707-1.746-5.63-5.553-6.691-12.399-4.656-19.804 1.863-6.779 6.501-10.601 13.72-12.029m-8.564 22.334c-.205 4.051 1.553 6.284 5.776 6.224 3.264-.046 5.365-1.535 5.754-4.891.384-3.318-.535-6.007-4.227-6.714-3.739-.715-6.606.217-7.303 5.381Zm-217.81 33.829c-.736-10.99 5.414-19.331 14.808-20.624 10.541-1.452 18.871 4.356 20.924 14.588 1.893 9.437-3.655 18.58-12.926 21.303-10.571 3.105-20.534-3.415-22.806-15.267m29.24-6.647c-1.129-.158-2.258-.445-3.387-.45-3.499-.014-4.917 2.281-5.407 5.303-.528 3.254 1.093 5.415 4.034 6.49 2.894 1.058 5.253-.129 6.777-2.579 1.909-3.068 1.43-5.962-2.017-8.764Zm288.496 441.822c.756 4.993.018 9.046-4.524 11.41-4.671 2.43-10.377.854-12.525-3.349-2.51-4.91-.896-11.159 3.487-13.506 5.037-2.696 10.442-.67 13.562 5.445Z" style="fill-rule:nonzero" transform="translate(-1.063 -6.785)"/></g></g></svg>