<?xml version="1.0" encoding="UTF-8" standalone="no"?>
<!DOCTYPE svg PUBLIC "-//W3C//DTD SVG 1.1//EN" "http://www.w3.org/Graphics/SVG/1.1/DTD/svg11.dtd">
<svg width="100%" height="100%" viewBox="0 0 1080 1080" version="1.1" xmlns="http://www.w3.org/2000/svg" xmlns:xlink="http://www.w3.org/1999/xlink" xml:space="preserve" xmlns:serif="http://www.serif.com/" style="fill-rule:evenodd;clip-rule:evenodd;stroke-linejoin:round;stroke-miterlimit:2;">
    <g transform="matrix(1.17418,0,0,1.17418,-114.063,-94.055)">
        <g transform="matrix(1.0687,0,0,1.0687,-56.3182,55.2599)">
            <g id="Layer1">
                <circle cx="573.929" cy="453.579" r="423.906" style="fill:rgb(250,204,21);"/>
            </g>
        </g>
        <g id="cat.svg" transform="matrix(0.703433,0,0,0.703433,565.635,540)">
            <g transform="matrix(1,0,0,1,-512.002,-424)">
                <clipPath id="_clip1">
                    <rect x="15.631" y="6.866" width="992.74" height="834.268"/>
                </clipPath>
                <g clip-path="url(#_clip1)">
                    <g id="Layer11" serif:id="Layer1">
                        <g>
                            <path d="M475.731,271.375C457.785,278.522 442.172,287.926 429.147,301.242C419.584,311.017 413.72,322.874 410.717,336.146C409.797,340.212 407.943,343.457 403.764,344.453C381.92,349.658 364.6,362.488 348.566,377.322C335.237,389.654 322.211,402.319 309.199,414.988C302.87,421.15 304.782,429.693 312.695,431.786C316.528,432.799 319.627,431.173 322.228,428.717C328.648,422.658 335.116,416.625 341.18,410.217C352.435,398.324 364.395,387.252 377.695,377.692C388.126,370.194 399.412,364.845 412.544,363.96C424.072,363.183 434.072,365.82 441.221,375.527C448.489,385.395 448.256,395.922 443.582,406.75C436.908,422.212 424.091,430.758 409.402,437.242C406.362,438.584 403.26,439.902 400.479,441.686C395.603,444.815 394.457,450.838 397.463,455.736C400,459.868 404.355,460.681 409.679,457.508C417.017,453.134 424.439,454.094 431.807,456.873C445.234,461.939 458.878,466.198 472.978,468.923C523.311,478.65 568.81,467.525 609.712,436.985C615.858,432.396 621.174,426.807 626.082,420.901C628.525,417.961 630.943,417.034 634.744,418.722C639.74,420.941 643.292,419.664 645.541,415.762C648.307,410.961 647.493,405.479 643.103,402.414C640.542,400.626 637.535,399.438 634.65,398.159C622.401,392.73 610.818,386.152 600.498,377.59C589.534,368.493 582.377,357.174 582.159,342.457C581.946,328.074 591.941,317.532 606.47,315.438C621.488,313.273 634.335,318.373 646.512,326.148C664.092,337.373 678.388,352.335 692.716,367.238C697.45,372.162 701.969,377.315 707.347,381.565C712.33,385.501 716.611,385.001 720.895,380.195C724.434,376.224 724.443,371.836 720.312,367.766C699.31,347.069 678.769,325.829 653.829,309.631C640.373,300.892 626.162,294.251 609.715,293.938C604.939,293.848 603.215,289.914 600.188,286.947C604.111,282.169 609.017,278.995 613.697,275.667C632.946,261.977 654.206,252.816 677.216,247.461C682.561,246.217 682.822,249.172 683.727,252.753C687.317,266.949 696.78,275.135 710.735,278.518C726.59,282.362 741.507,281.314 752.87,268.09C762.778,256.559 759.32,238.608 746.296,230.773C741.281,227.757 736.02,225.271 730.047,224.725C728.937,224.624 727.714,224.473 726.916,222.995C730.952,219.319 735.938,217.008 740.486,214.073C747.905,209.286 755.387,204.595 762.9,199.956C768.893,196.256 770.023,196.522 774.543,201.999C801.367,234.498 821.182,270.874 834.473,310.811C846.348,346.492 853.718,383.083 856.797,420.592C858.737,444.222 859.318,467.841 857.538,491.458C854.934,526.03 850.624,560.343 837.94,592.972C821.076,636.356 792.153,670.069 753.776,695.735C704.14,728.931 649.351,749.906 591.321,763.067C567.587,768.45 543.672,772.615 519.451,774.622C494.19,776.715 468.94,776.406 443.697,773.123C408.011,768.482 373.381,760.03 340.048,746.434C273.711,719.375 223.067,674.511 188.024,612.058C172.451,584.304 160.007,555.31 154.836,523.668C151.041,500.45 149.685,477.056 150.713,453.521C151.433,437.056 152.297,420.62 154.081,404.218C156.565,381.369 160.338,358.763 165.506,336.382C175.978,291.024 192.434,247.926 213.929,206.648C229.423,176.895 241.485,145.665 252.134,113.883C252.98,111.358 253.755,108.794 254.832,106.367C256.975,101.533 260.523,99.694 265.704,100.47C270.51,101.189 272.179,104.398 272.73,108.831C273.751,117.038 277.686,120.5 284.208,119.269C289.7,118.232 292.836,113.519 292.084,106.669C290.834,95.275 285.086,87.097 274.163,82.947C271.843,82.065 269.448,81.384 266.82,80.522C267.751,76.206 269.916,72.731 272.585,69.603C274.938,66.847 277.853,67.049 280.673,68.95C311.264,89.572 345.679,95.796 381.611,94.227C419.025,92.594 456.249,88.38 493.172,81.87C510.209,78.867 527.355,76.328 543.894,71.054C563.071,64.938 579.42,54.465 592.278,38.816C593.118,37.794 593.839,36.673 594.516,35.736C601.042,40.1 602.186,43.852 599.18,50.08C596.213,56.228 592.897,62.216 591.859,69.106C590.545,77.831 594.848,83.739 602.464,83.584C608.231,83.467 610.827,80.525 611.152,73.741C611.47,67.098 612.077,65.45 615.43,62.119C616.744,62.212 617.457,63.212 618.206,64.07C639.844,88.83 665.56,108.937 691.654,128.634C711.454,143.581 732.18,157.392 749.571,175.328C750.826,176.622 752.441,177.644 753.093,179.595C752.305,182.078 749.84,182.721 747.956,183.905C735.967,191.448 723.912,198.887 712.644,207.507C711.454,208.418 710.136,209.248 709.192,210.379C699.45,222.049 686.576,226.859 671.888,229.427C642.552,234.558 616.817,247.925 593.74,266.565C592.444,267.612 591.06,268.586 589.927,269.792C585.438,274.572 580.347,274.856 574.408,272.72C557.855,266.766 540.804,263.165 523.141,262.947C506.807,262.745 490.974,265.412 475.731,271.375Z" style="fill:rgb(255,245,245);"/>
                            <path d="M476.098,272.305C458.288,279.399 442.789,288.726 429.861,301.941C420.431,311.581 414.654,323.278 411.693,336.367C410.683,340.829 408.582,344.333 403.996,345.426C382.324,350.589 365.153,363.339 349.245,378.056C335.922,390.382 322.903,403.041 309.897,415.704C307.021,418.503 305.97,421.826 306.584,424.704C307.188,427.536 309.413,429.884 312.95,430.819C316.412,431.735 319.193,430.208 321.542,427.99C327.948,421.944 334.402,415.924 340.453,409.53C351.752,397.591 363.76,386.477 377.111,376.88C387.695,369.272 399.152,363.86 412.476,362.962C424.363,362.161 434.655,364.926 442.026,374.934C449.525,385.116 449.323,395.974 444.5,407.146C437.72,422.854 424.728,431.57 409.806,438.157C406.813,439.478 403.757,440.771 401.019,442.528C396.618,445.352 395.603,450.792 398.316,455.213C399.413,457.001 400.887,458.094 402.68,458.373C404.561,458.667 406.749,458.09 409.167,456.649C416.792,452.104 424.504,453.05 432.16,455.938C445.534,460.983 459.124,465.227 473.167,467.941C523.211,477.613 568.447,466.548 609.114,436.183C615.197,431.641 620.455,426.107 625.313,420.262C626.687,418.608 628.076,417.55 629.634,417.113C631.211,416.671 632.986,416.847 635.15,417.808C637.382,418.8 639.287,419.052 640.889,418.578C642.453,418.117 643.694,416.963 644.674,415.263C647.165,410.94 646.484,405.994 642.531,403.234C640.021,401.482 637.072,400.326 634.245,399.073C621.911,393.607 610.251,386.981 599.859,378.359C588.664,369.071 581.382,357.499 581.159,342.471C580.938,327.567 591.27,316.619 606.327,314.448C621.598,312.247 634.669,317.4 647.051,325.306C664.697,336.573 679.054,351.585 693.437,366.545C698.139,371.436 702.624,376.559 707.967,380.78C710.209,382.551 712.274,383.374 714.279,383.164C716.297,382.952 718.209,381.706 720.148,379.529C721.722,377.764 722.544,375.921 722.48,374.052C722.416,372.171 721.458,370.299 719.61,368.478C698.656,347.828 678.167,326.631 653.284,310.47C639.986,301.833 625.95,295.247 609.696,294.938C607.012,294.887 605.179,293.773 603.599,292.239C602.191,290.872 601.003,289.146 599.488,287.662C599.118,287.299 599.086,286.713 599.415,286.313C603.397,281.462 608.367,278.23 613.118,274.852C632.474,261.086 653.852,251.872 676.989,246.487C679.526,245.896 681.09,246.204 682.131,246.937C682.803,247.409 683.284,248.074 683.647,248.89C684.093,249.895 684.355,251.158 684.697,252.508C688.187,266.311 697.402,274.257 710.971,277.546C726.445,281.297 741.021,280.345 752.112,267.438C761.62,256.372 758.279,239.149 745.78,231.63C740.894,228.691 735.775,226.253 729.956,225.721C728.553,225.593 727.045,225.338 726.036,223.47C725.817,223.066 725.903,222.565 726.242,222.255C730.32,218.542 735.35,216.198 739.944,213.233C747.368,208.442 754.856,203.747 762.375,199.105C765.681,197.064 767.69,196.234 769.452,196.552C771.205,196.869 772.832,198.355 775.314,201.362C802.218,233.958 822.091,270.44 835.422,310.495C847.322,346.253 854.708,382.921 857.794,420.51C859.738,444.192 860.319,467.864 858.536,491.533C855.924,526.203 851.592,560.613 838.872,593.335C821.932,636.915 792.883,670.784 754.332,696.566C704.593,729.831 649.693,750.854 591.542,764.042C567.762,769.435 543.801,773.607 519.534,775.619C494.202,777.718 468.882,777.407 443.568,774.115C407.796,769.463 373.083,760.988 339.67,747.359C273.118,720.213 222.309,675.203 187.152,612.548C171.521,584.691 159.039,555.588 153.849,523.83C150.043,500.544 148.682,477.081 149.714,453.477C150.435,436.991 151.301,420.533 153.086,404.11C155.575,381.221 159.355,358.576 164.531,336.157C175.023,290.716 191.508,247.539 213.042,206.187C228.512,176.479 240.553,145.298 251.186,113.565C252.042,111.011 252.829,108.417 253.917,105.961C255.094,103.308 256.677,101.495 258.656,100.433C260.63,99.375 263.015,99.056 265.852,99.481C268.016,99.805 269.607,100.595 270.786,101.725C272.51,103.375 273.36,105.79 273.722,108.707C274.285,113.229 275.719,116.228 278.143,117.623C279.719,118.53 281.687,118.727 284.023,118.286C289.014,117.344 291.773,113.004 291.09,106.778C289.884,95.784 284.347,87.886 273.808,83.881C271.502,83.005 269.121,82.329 266.508,81.473C266.022,81.313 265.734,80.812 265.842,80.312C266.81,75.825 269.05,72.205 271.825,68.954C272.931,67.658 274.154,66.936 275.422,66.658C277.285,66.25 279.284,66.808 281.232,68.121C311.639,88.619 345.852,94.788 381.567,93.228C418.937,91.597 456.118,87.388 492.998,80.886C509.992,77.89 527.094,75.361 543.59,70.101C562.581,64.045 578.773,53.678 591.506,38.181C592.332,37.176 593.039,36.073 593.705,35.151C594.02,34.714 594.624,34.606 595.072,34.905C598.579,37.25 600.594,39.472 601.375,41.903C602.168,44.375 601.723,47.112 600.08,50.515C597.157,56.573 593.87,62.466 592.848,69.255C592.237,73.309 592.888,76.717 594.62,79.085C596.302,81.385 599.006,82.654 602.443,82.584C604.988,82.533 606.854,81.911 608.099,80.501C609.39,79.038 610.005,76.797 610.153,73.693C610.49,66.663 611.177,64.935 614.725,61.409C614.93,61.206 615.213,61.101 615.501,61.121C617.108,61.236 618.043,62.363 618.959,63.412C640.551,88.12 666.217,108.18 692.257,127.836C712.098,142.813 732.862,156.659 750.289,174.632C751.643,176.029 753.338,177.172 754.042,179.278C754.109,179.479 754.11,179.696 754.046,179.898C753.574,181.384 752.619,182.334 751.481,183.075C750.526,183.697 749.435,184.157 748.489,184.752C736.525,192.278 724.495,199.7 713.252,208.302C712.12,209.167 710.857,209.945 709.96,211.019C700.058,222.881 686.989,227.802 672.061,230.412C642.894,235.513 617.311,248.811 594.369,267.343C593.108,268.361 591.757,269.303 590.656,270.476C585.855,275.589 580.421,275.946 574.07,273.661C557.622,267.745 540.68,264.164 523.128,263.947C506.926,263.747 491.219,266.39 476.098,272.305ZM475.731,271.375C490.974,265.412 506.807,262.745 523.141,262.947C540.804,263.165 557.855,266.766 574.408,272.72C580.347,274.856 585.438,274.572 589.927,269.792C591.06,268.586 592.444,267.612 593.74,266.565C616.817,247.925 642.552,234.558 671.888,229.427C686.576,226.859 699.45,222.049 709.192,210.379C710.136,209.248 711.454,208.418 712.644,207.507C723.912,198.887 735.967,191.448 747.956,183.905C749.84,182.721 752.305,182.078 753.093,179.595C752.441,177.644 750.826,176.622 749.571,175.328C732.18,157.392 711.454,143.581 691.654,128.634C665.56,108.937 639.844,88.83 618.206,64.07C617.457,63.212 616.744,62.212 615.43,62.119C612.077,65.45 611.47,67.098 611.152,73.741C610.827,80.525 608.231,83.467 602.464,83.584C594.848,83.739 590.545,77.831 591.859,69.106C592.897,62.216 596.213,56.228 599.18,50.08C602.186,43.852 601.042,40.1 594.516,35.736C593.839,36.673 593.118,37.794 592.278,38.816C579.42,54.465 563.071,64.938 543.894,71.054C527.355,76.328 510.209,78.867 493.172,81.87C456.249,88.38 419.025,92.594 381.611,94.227C345.679,95.796 311.264,89.572 280.673,68.95C277.853,67.049 274.938,66.847 272.585,69.603C269.916,72.731 267.751,76.206 266.82,80.522C269.448,81.384 271.843,82.065 274.163,82.947C285.086,87.097 290.834,95.275 292.084,106.669C292.836,113.519 289.7,118.232 284.208,119.269C277.686,120.5 273.751,117.038 272.73,108.831C272.179,104.398 270.51,101.189 265.704,100.47C260.523,99.694 256.975,101.533 254.832,106.367C253.755,108.794 252.98,111.358 252.134,113.883C241.485,145.665 229.423,176.895 213.929,206.648C192.434,247.926 175.978,291.024 165.506,336.382C160.338,358.763 156.565,381.369 154.081,404.218C152.297,420.62 151.433,437.056 150.713,453.521C149.685,477.056 151.041,500.45 154.836,523.668C160.007,555.31 172.451,584.304 188.024,612.058C223.067,674.511 273.711,719.375 340.048,746.434C373.381,760.03 408.011,768.482 443.697,773.123C468.94,776.406 494.19,776.715 519.451,774.622C543.672,772.615 567.587,768.45 591.321,763.067C649.351,749.906 704.14,728.931 753.776,695.735C792.153,670.069 821.076,636.356 837.94,592.972C850.624,560.343 854.934,526.03 857.538,491.458C859.318,467.841 858.737,444.222 856.797,420.592C853.718,383.083 846.348,346.492 834.473,310.811C821.182,270.874 801.367,234.498 774.543,201.999C770.023,196.522 768.893,196.256 762.9,199.956C755.387,204.595 747.905,209.286 740.486,214.073C735.938,217.008 730.952,219.319 726.916,222.995C727.714,224.473 728.937,224.624 730.047,224.725C736.02,225.271 741.281,227.757 746.296,230.773C759.32,238.608 762.778,256.559 752.87,268.09C741.507,281.314 726.59,282.362 710.735,278.518C696.78,275.135 687.317,266.949 683.727,252.753C682.822,249.172 682.561,246.217 677.216,247.461C654.206,252.816 632.946,261.977 613.697,275.667C609.017,278.995 604.111,282.169 600.188,286.947C603.215,289.914 604.939,293.848 609.715,293.938C626.162,294.251 640.373,300.892 653.829,309.631C678.769,325.829 699.31,347.069 720.312,367.766C724.443,371.836 724.434,376.224 720.895,380.195C716.611,385.001 712.33,385.501 707.347,381.565C701.969,377.315 697.45,372.162 692.716,367.238C678.388,352.335 664.092,337.373 646.512,326.148C634.335,318.373 621.488,313.273 606.47,315.438C591.941,317.532 581.946,328.074 582.159,342.457C582.377,357.174 589.534,368.493 600.498,377.59C610.818,386.152 622.401,392.73 634.65,398.159C637.535,399.438 640.542,400.626 643.103,402.414C647.493,405.479 648.307,410.961 645.541,415.762C643.292,419.664 639.74,420.941 634.744,418.722C630.943,417.034 628.525,417.961 626.082,420.901C621.174,426.807 615.858,432.396 609.712,436.985C568.81,467.525 523.311,478.65 472.978,468.923C458.878,466.198 445.234,461.939 431.807,456.873C424.439,454.094 417.017,453.134 409.679,457.508C404.355,460.681 400,459.868 397.463,455.736C394.457,450.838 395.603,444.815 400.479,441.686C403.26,439.902 406.362,438.584 409.402,437.242C424.091,430.758 436.908,422.212 443.582,406.75C448.256,395.922 448.489,385.395 441.221,375.527C434.072,365.82 424.072,363.183 412.544,363.96C399.412,364.845 388.126,370.194 377.695,377.692C364.395,387.252 352.435,398.324 341.18,410.217C335.116,416.625 328.648,422.658 322.228,428.717C319.627,431.173 316.528,432.799 312.695,431.786C304.782,429.693 302.87,421.15 309.199,414.988C322.211,402.319 335.237,389.654 348.566,377.322C364.6,362.488 381.92,349.658 403.764,344.453C407.943,343.457 409.797,340.212 410.717,336.146C413.72,322.874 419.584,311.017 429.147,301.242C442.172,287.926 457.785,278.522 475.731,271.375Z" style="fill:rgb(255,245,245);"/>
                            <path d="M304.492,810.106C265.044,794.991 237.832,767.455 217.986,731.846C209.127,715.953 202.499,699.014 195.069,682.454C187.292,665.119 177.564,649.162 163.686,635.941C143.788,616.983 120.336,611.697 93.963,617.658C82.134,620.332 70.544,624.187 58.098,623.04C48.088,622.117 40.283,616.212 39.279,608.15C37.942,597.416 43.759,587.69 53.527,584.527C70.294,579.098 87.329,579.458 104.383,582.677C121.218,585.854 137.092,591.729 151.677,600.828C161.371,606.876 168.758,615.047 174.033,625.207C188.401,652.881 207.894,676.61 230.541,697.832C235.955,702.905 240.197,708.43 243.408,715.277C259.44,749.474 286.18,772.57 320.408,787.411C343.699,797.511 367.921,803.713 393.525,803.435C409.167,803.266 424.285,800.16 439.003,795.066C442.552,793.837 446.025,793.2 449.749,793.434C462.377,794.225 475.009,794.939 488.713,795.746C480.692,799.293 473.207,801.63 465.695,803.793C441.36,810.8 416.747,816.622 391.55,819.509C361.856,822.912 332.713,820.624 304.492,810.106Z" style="fill:rgb(255,245,245);"/>
                            <path d="M304.134,811.04C264.456,795.837 237.075,768.15 217.112,732.333C208.24,716.414 201.598,699.45 194.157,682.864C186.433,665.647 176.778,649.795 162.996,636.665C143.359,617.955 120.211,612.75 94.183,618.633C82.252,621.33 70.559,625.193 58.006,624.035C47.476,623.065 39.343,616.754 38.286,608.274C36.888,597.044 43,586.884 53.219,583.576C70.149,578.094 87.348,578.444 104.569,581.694C121.526,584.894 137.515,590.814 152.206,599.98C162.055,606.124 169.561,614.424 174.921,624.746C189.236,652.319 208.661,675.958 231.225,697.102C236.733,702.263 241.047,707.886 244.313,714.853C260.238,748.821 286.807,771.752 320.806,786.494C343.967,796.537 368.053,802.712 393.514,802.435C409.047,802.267 424.06,799.18 438.676,794.121C442.353,792.848 445.953,792.194 449.812,792.436C462.438,793.227 475.07,793.941 488.771,794.748C489.232,794.775 489.615,795.114 489.697,795.568C489.779,796.022 489.539,796.474 489.117,796.66C481.052,800.227 473.525,802.579 465.972,804.754C441.584,811.777 416.916,817.609 391.664,820.503C361.812,823.924 332.514,821.617 304.143,811.043C304.14,811.042 304.137,811.041 304.134,811.04ZM304.492,810.106C332.713,820.624 361.856,822.912 391.55,819.509C416.747,816.622 441.36,810.8 465.695,803.793C473.207,801.63 480.692,799.293 488.713,795.746C475.009,794.939 462.377,794.225 449.749,793.434C446.025,793.2 442.552,793.837 439.003,795.066C424.285,800.16 409.167,803.266 393.525,803.435C367.921,803.713 343.699,797.511 320.408,787.411C286.18,772.57 259.44,749.474 243.408,715.277C240.197,708.43 235.955,702.905 230.541,697.832C207.894,676.61 188.401,652.881 174.033,625.207C168.758,615.047 161.371,606.876 151.677,600.828C137.092,591.729 121.218,585.854 104.383,582.677C87.329,579.458 70.294,579.098 53.527,584.527C43.759,587.69 37.942,597.416 39.279,608.15C40.283,616.212 48.088,622.117 58.098,623.04C70.544,624.187 82.134,620.332 93.963,617.658C120.336,611.697 143.788,616.983 163.686,635.941C177.564,649.162 187.292,665.119 195.069,682.454C202.499,699.014 209.127,715.953 217.986,731.846C237.832,767.455 265.044,794.991 304.492,810.106Z" style="fill:rgb(255,245,245);"/>
                            <path d="M704.603,249.153C704.159,246.248 705.358,244.723 707.284,244.425C716.299,243.03 725.433,241.588 733.769,246.902C739.917,250.82 739.742,254.644 733.541,258.545C723.815,264.664 710.166,260.235 704.603,249.153Z" style="fill:rgb(255,245,245);"/>
                            <path d="M703.614,249.304C703.347,247.554 703.621,246.226 704.205,245.284C704.844,244.254 705.862,243.633 707.131,243.437C716.383,242.005 725.751,240.604 734.307,246.058C737.786,248.276 739.342,250.568 739.285,252.756C739.229,254.93 737.559,257.199 734.073,259.392C723.874,265.808 709.543,261.222 703.709,249.602C703.662,249.508 703.63,249.408 703.614,249.304ZM704.603,249.153C710.166,260.235 723.815,264.664 733.541,258.545C739.742,254.644 739.917,250.82 733.769,246.902C725.433,241.588 716.299,243.03 707.284,244.425C705.358,244.723 704.159,246.248 704.603,249.153Z" style="fill:rgb(255,245,245);"/>
                        </g>
                        <g>
                            <path d="M377.456,213.006C380.904,215.809 381.383,218.703 379.474,221.771C377.95,224.221 375.591,225.408 372.697,224.35C369.755,223.274 368.134,221.114 368.663,217.86C369.153,214.838 370.571,212.543 374.07,212.557C375.199,212.562 376.328,212.849 377.456,213.006Z" style="fill:white;"/>
                            <path d="M378.087,212.23C380.029,213.809 381.1,215.438 381.452,217.08C381.815,218.774 381.433,220.515 380.323,222.299C378.534,225.175 375.751,226.531 372.354,225.289C370.658,224.669 369.357,223.716 368.542,222.469C367.711,221.198 367.365,219.612 367.676,217.7C368.014,215.613 368.786,213.851 370.18,212.76C371.142,212.007 372.406,211.55 374.074,211.557C375.248,211.562 376.422,211.852 377.595,212.016C377.775,212.041 377.946,212.115 378.087,212.23ZM377.456,213.006C376.328,212.849 375.199,212.562 374.07,212.557C370.571,212.543 369.153,214.838 368.663,217.86C368.134,221.114 369.755,223.274 372.697,224.35C375.591,225.408 377.95,224.221 379.474,221.771C381.383,218.703 380.904,215.809 377.456,213.006Z" style="fill:white;"/>
                            <path d="M566.027,185.825C566.724,180.661 569.591,179.729 573.329,180.444C577.022,181.151 577.94,183.84 577.556,187.158C577.168,190.514 575.066,192.003 571.803,192.049C567.58,192.108 565.822,189.876 566.027,185.825Z" style="fill:white;"/>
                            <path d="M565.036,185.691C565.438,182.71 566.543,180.991 568.01,180.08C569.473,179.172 571.367,179.05 573.517,179.462C575.271,179.797 576.484,180.535 577.295,181.522C578.477,182.958 578.815,184.978 578.55,187.273C578.32,189.259 577.55,190.677 576.388,191.621C575.251,192.545 573.707,193.022 571.817,193.049C569.342,193.084 567.612,192.383 566.508,191.144C565.418,189.92 564.91,188.118 565.028,185.774C565.03,185.746 565.032,185.718 565.036,185.691ZM566.027,185.825C565.822,189.876 567.58,192.108 571.803,192.049C575.066,192.003 577.168,190.514 577.556,187.158C577.94,183.84 577.022,181.151 573.329,180.444C569.591,179.729 566.724,180.661 566.027,185.825Z" style="fill:white;"/>
                        </g>
                        <g>
                            <path d="M474.367,418.359C467.416,380.453 462.711,343.219 464.015,305.397C464.21,299.74 466.16,296.417 471.323,294.355C476.378,292.336 481.12,289.489 486.767,288.878C488.065,291.578 487.577,294.276 487.542,296.871C487.197,322.206 488.067,347.463 491.583,372.599C495.091,397.683 500.52,422.342 507.498,446.672C509.262,452.823 509.135,453.187 502.538,452.971C496.72,452.781 490.913,452.252 485.101,451.871C482.17,451.679 480.712,450.087 480.158,447.211C478.302,437.58 476.308,427.975 474.367,418.359Z" style="fill:rgb(177,201,199);"/>
                            <path d="M473.383,418.54C466.419,380.561 461.709,343.256 463.015,305.362C463.12,302.322 463.721,299.916 464.965,297.986C466.224,296.033 468.144,294.548 470.952,293.427C476.091,291.374 480.919,288.505 486.659,287.884C487.08,287.838 487.484,288.063 487.668,288.445C489.04,291.297 488.579,294.142 488.542,296.884C488.198,322.168 489.064,347.375 492.573,372.461C496.075,397.499 501.494,422.112 508.459,446.397C509.015,448.333 509.38,449.726 509.449,450.717C509.513,451.651 509.326,452.322 508.948,452.816C508.57,453.312 507.971,453.672 507.041,453.85C506.054,454.04 504.586,454.039 502.505,453.971C496.676,453.781 490.858,453.251 485.035,452.869C483.289,452.755 481.993,452.194 481.039,451.263C480.11,450.355 479.498,449.071 479.176,447.401C477.321,437.772 475.327,428.17 473.387,418.557C473.385,418.551 473.384,418.545 473.383,418.54ZM474.367,418.359C476.308,427.975 478.302,437.58 480.158,447.211C480.712,450.087 482.17,451.679 485.101,451.871C490.913,452.252 496.72,452.781 502.538,452.971C509.135,453.187 509.262,452.823 507.498,446.672C500.52,422.342 495.091,397.683 491.583,372.599C488.067,347.463 487.197,322.206 487.542,296.871C487.577,294.276 488.065,291.578 486.767,288.878C481.12,289.489 476.378,292.336 471.323,294.355C466.16,296.417 464.21,299.74 464.015,305.397C462.711,343.219 467.416,380.453 474.367,418.359Z" style="fill:rgb(177,201,199);"/>
                            <path d="M543.174,283.555C553.705,285.355 563.167,287.671 571.984,292.473C570.778,295.05 568.457,295.362 566.591,296.197C549.785,303.714 532.183,308.58 514.078,311.707C508.439,312.681 507.068,311.628 506.949,305.999C506.825,300.175 507.007,294.346 506.936,288.521C506.883,284.13 509.475,282.629 513.279,282.581C523.257,282.453 533.258,281.768 543.174,283.555Z" style="fill:rgb(177,201,199);"/>
                            <path d="M543.347,282.57C553.99,284.39 563.551,286.741 572.462,291.595C572.926,291.848 573.114,292.418 572.89,292.897C572.042,294.708 570.738,295.578 569.348,296.184C568.559,296.528 567.743,296.777 566.999,297.11C550.117,304.661 532.436,309.551 514.248,312.692C511.026,313.249 509.035,313.077 507.821,312.111C506.598,311.139 506.018,309.26 505.949,306.02C505.825,300.194 506.008,294.361 505.936,288.533C505.912,286.492 506.415,284.998 507.267,283.925C508.536,282.328 510.635,281.614 513.267,281.581C523.306,281.452 533.369,280.773 543.347,282.57ZM543.174,283.555C533.258,281.768 523.257,282.453 513.279,282.581C509.475,282.629 506.883,284.13 506.936,288.521C507.007,294.346 506.825,300.175 506.949,305.999C507.068,311.628 508.439,312.681 514.078,311.707C532.183,308.58 549.785,303.714 566.591,296.197C568.457,295.362 570.778,295.05 571.984,292.473C563.167,287.671 553.705,285.355 543.174,283.555Z" style="fill:rgb(177,201,199);"/>
                            <path d="M607.956,407.18C612.491,408.014 610.208,409.789 608.912,411.102C603.883,416.195 598.538,420.932 592.804,425.24C575.302,438.388 555.478,446.098 534.231,450.618C529.023,451.725 527.761,449.012 527.54,444.832C528.214,443.256 529.694,443.118 530.918,442.895C559.181,437.752 584.218,425.655 606.652,407.907C607.037,407.602 607.519,407.419 607.956,407.18Z" style="fill:rgb(177,201,199);"/>
                            <path d="M608.137,406.196C609.426,406.433 610.24,406.763 610.726,407.106C611.248,407.473 611.496,407.893 611.597,408.308C611.736,408.882 611.578,409.515 611.158,410.132C610.769,410.705 610.131,411.291 609.624,411.804C604.56,416.932 599.178,421.702 593.404,426.039C575.784,439.276 555.83,447.046 534.439,451.596C532.014,452.111 530.331,451.844 529.159,451.112C527.414,450.021 526.694,447.785 526.541,444.885C526.533,444.732 526.56,444.579 526.62,444.439C527.457,442.483 529.22,442.188 530.739,441.912C558.838,436.798 583.728,424.768 606.031,407.123C606.46,406.784 606.989,406.569 607.475,406.303C607.677,406.192 607.911,406.154 608.137,406.196ZM607.956,407.18C607.519,407.419 607.037,407.602 606.652,407.907C584.218,425.655 559.181,437.752 530.918,442.895C529.694,443.118 528.214,443.256 527.54,444.832C527.761,449.012 529.023,451.725 534.231,450.618C555.478,446.098 575.302,438.388 592.804,425.24C598.538,420.932 603.883,416.195 608.912,411.102C610.208,409.789 612.491,408.014 607.956,407.18Z" style="fill:rgb(177,201,199);"/>
                            <path d="M517.377,330.396C535.124,327.415 551.496,322.563 567.525,316.803C568.725,318.796 567.508,319.827 566.946,320.875C562.702,328.791 560.028,337.087 560.737,346.19C560.95,348.928 559.859,350.486 557.365,351.553C543.581,357.449 529.393,362.155 515.014,366.349C511.781,367.291 510.157,366.264 509.834,363.104C508.923,354.187 508.084,345.263 507.261,336.337C506.983,333.314 508.493,331.654 511.464,331.246C513.437,330.975 515.406,330.68 517.377,330.396Z" style="fill:rgb(177,201,199);"/>
                            <path d="M517.223,329.408L517.23,329.406C534.909,326.435 551.218,321.6 567.187,315.862C567.636,315.7 568.136,315.878 568.382,316.287C569.866,318.755 568.523,320.05 567.827,321.347C563.675,329.093 561.04,337.205 561.734,346.112C561.861,347.741 561.57,349.012 560.907,350.04C560.253,351.054 559.22,351.847 557.759,352.472C543.937,358.384 529.711,363.104 515.294,367.309C513.319,367.884 511.84,367.764 510.801,367.112C509.738,366.445 509.041,365.18 508.839,363.206C507.928,354.286 507.088,345.358 506.265,336.429C506.097,334.596 506.515,333.188 507.381,332.165C508.234,331.157 509.553,330.499 511.328,330.255C513.295,329.985 515.258,329.691 517.223,329.408ZM517.377,330.396C515.406,330.68 513.437,330.975 511.464,331.246C508.493,331.654 506.983,333.314 507.261,336.337C508.084,345.263 508.923,354.187 509.834,363.104C510.157,366.264 511.781,367.291 515.014,366.349C529.393,362.155 543.581,357.449 557.365,351.553C559.859,350.486 560.95,348.928 560.737,346.19C560.028,337.087 562.702,328.791 566.946,320.875C567.508,319.827 568.725,318.796 567.525,316.803C551.496,322.563 535.124,327.415 517.377,330.396Z" style="fill:rgb(177,201,199);"/>
                            <path d="M555.889,372.773C567.563,368.248 567.567,368.245 574.794,377.293C578.966,382.517 583.674,387.213 588.901,391.364C591.814,393.678 591.523,395.452 588.629,397.569C569.638,411.466 548.504,420.267 525.417,424.574C522.618,425.097 521.262,423.968 520.721,421.515C518.471,411.302 516.347,401.062 514.044,390.861C513.234,387.271 515.11,386.228 518.07,385.4C530.882,381.819 543.573,377.848 555.889,372.773Z" style="fill:rgb(177,201,199);"/>
                            <path d="M555.528,371.84C559.094,370.458 561.593,369.496 563.54,369.067C564.99,368.748 566.166,368.714 567.242,368.971C568.582,369.291 569.781,370.065 571.141,371.427C572.359,372.648 573.739,374.37 575.575,376.669C579.7,381.834 584.355,386.477 589.523,390.581C591.336,392.021 592.028,393.37 591.94,394.611C591.854,395.826 590.983,397.086 589.219,398.376C570.106,412.362 548.837,421.223 525.601,425.557C523.867,425.881 522.59,425.631 521.653,424.983C520.715,424.334 520.08,423.251 519.745,421.73C517.495,411.519 515.371,401.28 513.069,391.082C512.673,389.328 512.859,388.077 513.387,387.136C514.148,385.782 515.719,385.019 517.801,384.437C530.575,380.866 543.228,376.909 555.508,371.848C555.515,371.845 555.521,371.843 555.528,371.84ZM555.889,372.773C543.573,377.848 530.882,381.819 518.07,385.4C515.11,386.228 513.234,387.271 514.044,390.861C516.347,401.062 518.471,411.302 520.721,421.515C521.262,423.968 522.618,425.097 525.417,424.574C548.504,420.267 569.638,411.466 588.629,397.569C591.523,395.452 591.814,393.678 588.901,391.364C583.674,387.213 578.966,382.517 574.794,377.293C567.567,368.245 567.563,368.248 555.889,372.773Z" style="fill:rgb(177,201,199);"/>
                            <path d="M433.608,345.956C429.565,344.679 428.676,342.806 429.782,339.297C432.619,330.295 437.275,322.473 444.71,315.714L444.71,350.179C440.968,349.548 437.409,347.404 433.608,345.956Z" style="fill:rgb(177,201,199);"/>
                            <path d="M433.285,346.903L433.278,346.901C430.948,346.16 429.57,345.181 428.889,343.948C428.188,342.68 428.171,341.082 428.828,338.997C431.719,329.827 436.463,321.86 444.037,314.974C444.33,314.707 444.753,314.639 445.115,314.799C445.477,314.959 445.71,315.318 445.71,315.714L445.71,350.179C445.71,350.474 445.58,350.753 445.356,350.943C445.131,351.133 444.834,351.214 444.544,351.165C440.75,350.526 437.136,348.374 433.285,346.903ZM433.608,345.956C437.409,347.404 440.968,349.548 444.71,350.179L444.71,315.714C437.275,322.473 432.619,330.295 429.782,339.297C428.676,342.806 429.565,344.679 433.608,345.956Z" style="fill:rgb(177,201,199);"/>
                            <path d="M459.335,445.636C453.457,444.863 448.428,443.323 442.903,440.138L455.96,425.568C457.144,432.944 460.136,438.9 459.335,445.636Z" style="fill:rgb(177,201,199);"/>
                            <path d="M459.205,446.627C453.195,445.837 448.053,444.261 442.403,441.004C442.142,440.854 441.963,440.593 441.915,440.296C441.868,439.998 441.957,439.695 442.158,439.47L455.216,424.901C455.473,424.613 455.873,424.5 456.242,424.609C456.612,424.717 456.887,425.029 456.948,425.41C458.147,432.884 461.139,438.928 460.328,445.754C460.296,446.019 460.16,446.261 459.949,446.425C459.738,446.589 459.47,446.662 459.205,446.627ZM459.335,445.636C460.136,438.9 457.144,432.944 455.96,425.568L442.903,440.138C448.428,443.323 453.457,444.863 459.335,445.636Z" style="fill:rgb(177,201,199);"/>
                        </g>
                        <g transform="matrix(1,0,0,1,-1.06317,-6.7852)">
                            <path d="M874.247,400.057C877.092,422.311 879.081,444.233 878.914,466.187C878.542,515.374 873.437,563.922 854.742,610.047C838.846,649.267 813.435,681.466 780.138,707.252C736.124,741.34 686.284,764.048 633.32,780.279C609.578,787.555 585.408,792.998 560.794,796.412C559.172,796.637 557.531,797.173 556.046,797.875C524.045,812.987 490.794,824.731 456.775,834.29C430.266,841.739 403.204,845.778 375.669,847.495C319.967,850.969 272.207,833.058 231.574,795.415C215.592,780.61 206.002,761.514 197.386,741.877C188.761,722.22 181.62,701.879 170.463,683.383C163.615,672.029 155.826,661.602 144.716,653.886C131.135,644.454 116.16,642.621 100.343,644.916C90.303,646.373 80.546,649.302 70.451,650.64C55.078,652.677 41.458,648.865 29.087,639.76C16.981,630.85 10.508,610.036 25.022,591.263C38.743,573.514 56.378,565.783 78.375,566.485C101.186,567.212 122.647,573.456 143.611,581.922C146.01,582.891 148.238,584.552 151.028,584.294C152.543,582.127 151.103,580.27 150.495,578.531C142.717,556.283 137.579,533.414 135.089,510.022C132.493,485.647 132.232,461.241 134.383,436.736C136.173,416.35 138.325,396.051 141.588,375.852C150.621,319.946 167.023,266.317 191.77,215.378C210.131,177.584 226.487,138.987 241.052,99.588C246.673,84.385 254.345,70.147 263.941,57.011C270.181,48.471 274.498,47.884 283.048,54.306C306.001,71.542 332.091,79.814 360.515,81.784C384.088,83.419 407.334,80.262 430.674,77.967C459.655,75.116 488.452,71.062 517.047,65.626C542.089,60.867 564.401,50.961 580.685,30.304C583.167,27.155 585.37,23.841 587.304,20.322C591.977,11.82 603.815,11.244 608.475,19.752C619.845,40.511 635.542,57.618 652.501,73.759C671.257,91.61 691.924,107.095 712.737,122.393C731.956,136.52 750.476,151.48 767.896,167.79C774.671,174.133 775.524,174.217 783.642,170.096C811.471,155.968 840.535,144.775 869.697,133.812C881.496,129.376 892.53,123.635 901.563,114.619C905.572,110.618 908.908,106.159 910.561,100.864C908.726,98.669 906.806,99.348 905.083,99.592C893.139,101.281 881.739,98.84 871.02,94.015C851.987,85.448 847.32,61.57 860.917,44.543C872.242,30.36 892.225,27.194 908.259,37.12C918.487,43.452 925.653,52.475 930.886,63.183C934.469,70.516 935.768,71.015 943.318,68.268C960.241,62.11 975.399,52.855 989.591,41.895C993.218,39.093 996.933,36.68 1001.94,38.625C1005.85,40.143 1008.33,42.719 1009.2,46.809C1010.05,50.821 1008.55,53.708 1005.37,56.318C986.349,71.922 965.339,83.902 941.778,91.1C936.556,92.696 933.991,95.079 932.862,100.722C928.91,120.468 916.267,133.729 898.943,142.773C876.183,154.656 852.182,163.826 828.777,174.301C816.921,179.608 805.225,185.27 793.399,190.644C788.802,192.733 790.251,195.073 792.528,197.954C810.371,220.534 825.422,244.852 837.565,270.948C853.176,304.495 863.745,339.627 870.31,375.995C871.727,383.845 872.921,391.737 874.247,400.057M476.794,278.16C492.037,272.197 507.871,269.531 524.204,269.732C541.868,269.951 558.919,273.551 575.472,279.505C581.41,281.642 586.501,281.358 590.99,276.577C592.123,275.371 593.507,274.397 594.804,273.35C617.88,254.71 643.615,241.343 672.951,236.213C687.639,233.644 700.513,228.834 710.256,217.164C711.199,216.033 712.517,215.203 713.707,214.293C724.975,205.673 737.03,198.233 749.019,190.691C750.903,189.506 753.368,188.863 754.156,186.38C753.505,184.429 751.889,183.407 750.634,182.113C733.244,164.177 712.518,150.366 692.717,135.419C666.623,115.722 640.907,95.615 619.269,70.855C618.52,69.997 617.808,68.998 616.493,68.904C613.14,72.235 612.533,73.884 612.215,80.526C611.891,87.31 609.294,90.252 603.527,90.369C595.912,90.524 591.608,84.616 592.922,75.891C593.96,69.001 597.276,63.013 600.243,56.866C603.249,50.637 602.105,46.885 595.579,42.521C594.902,43.459 594.182,44.579 593.341,45.602C580.483,61.25 564.135,71.723 544.957,77.839C528.418,83.113 511.272,85.652 494.235,88.656C457.312,95.166 420.088,99.379 382.674,101.012C346.742,102.581 312.328,96.357 281.736,75.735C278.916,73.834 276.001,73.633 273.649,76.389C270.979,79.516 268.814,82.992 267.883,87.308C270.511,88.169 272.907,88.85 275.226,89.732C286.149,93.882 291.897,102.06 293.147,113.454C293.899,120.304 290.763,125.017 285.271,126.054C278.749,127.285 274.814,123.823 273.793,115.616C273.242,111.183 271.573,107.974 266.767,107.255C261.586,106.479 258.038,108.318 255.895,113.152C254.819,115.579 254.043,118.144 253.197,120.668C242.548,152.45 230.487,183.68 214.992,213.434C193.497,254.711 177.041,297.809 166.569,343.167C161.401,365.548 157.628,388.154 155.144,411.003C153.36,427.405 152.497,443.841 151.777,460.306C150.748,483.841 152.105,507.236 155.899,530.454C161.07,562.095 173.514,591.089 189.087,618.844C224.13,681.296 274.774,726.16 341.111,753.219C374.444,766.815 409.074,775.267 444.76,779.909C470.003,783.191 495.253,783.501 520.515,781.407C544.735,779.4 568.65,775.235 592.384,769.852C650.414,756.691 705.203,735.716 754.839,702.52C793.216,676.854 822.139,643.141 839.004,599.757C851.687,567.129 855.997,532.815 858.602,498.243C860.381,474.626 859.801,451.007 857.86,427.377C854.781,389.868 847.411,353.278 835.536,317.596C822.245,277.659 802.431,241.284 775.606,208.784C771.086,203.307 769.956,203.042 763.963,206.741C756.45,211.38 748.968,216.071 741.549,220.859C737.002,223.793 732.015,226.104 727.979,229.78C728.777,231.258 730,231.409 731.11,231.511C737.083,232.057 742.344,234.542 747.359,237.559C760.383,245.393 763.841,263.344 753.934,274.875C742.57,288.1 727.653,289.147 711.799,285.303C697.843,281.921 688.38,273.734 684.79,259.538C683.885,255.957 683.624,253.002 678.279,254.246C655.27,259.602 634.009,268.762 614.76,282.452C610.08,285.781 605.174,288.954 601.251,293.733C604.278,296.699 606.002,300.633 610.778,300.723C627.225,301.036 641.436,307.677 654.892,316.416C679.832,332.615 700.373,353.854 721.375,374.551C725.506,378.622 725.497,383.009 721.958,386.98C717.674,391.786 713.393,392.287 708.411,388.35C703.032,384.1 698.513,378.947 693.779,374.024C679.451,359.12 665.155,344.158 647.576,332.934C635.398,325.158 622.551,320.058 607.533,322.223C593.004,324.318 583.009,334.859 583.222,349.242C583.44,363.959 590.597,375.278 601.561,384.375C611.882,392.938 623.464,399.516 635.713,404.944C638.599,406.223 641.605,407.411 644.166,409.199C648.556,412.264 649.37,417.746 646.604,422.547C644.355,426.449 640.803,427.727 635.807,425.507C632.006,423.819 629.588,424.746 627.145,427.686C622.237,433.592 616.922,439.181 610.776,443.77C569.873,474.31 524.374,485.436 474.041,475.708C459.942,472.984 446.298,468.724 432.87,463.659C425.502,460.879 418.08,459.919 410.742,464.293C405.418,467.467 401.063,466.654 398.527,462.521C395.521,457.623 396.666,451.6 401.542,448.471C404.323,446.687 407.425,445.369 410.465,444.027C425.154,437.543 437.971,428.997 444.645,413.535C449.319,402.707 449.552,392.181 442.284,382.312C435.135,372.606 425.135,369.968 413.607,370.745C400.475,371.63 389.189,376.979 378.758,384.477C365.458,394.037 353.498,405.109 342.243,417.003C336.179,423.41 329.711,429.443 323.291,435.503C320.69,437.958 317.591,439.585 313.758,438.571C305.845,436.478 303.933,427.935 310.262,421.773C323.275,409.104 336.3,396.439 349.63,384.107C365.663,369.273 382.983,356.443 404.827,351.238C409.007,350.242 410.86,346.997 411.78,342.931C414.783,329.66 420.647,317.802 430.21,308.027C443.235,294.712 458.849,285.307 476.794,278.16M305.555,816.891C333.776,827.41 362.919,829.698 392.613,826.295C417.81,823.407 442.423,817.586 466.758,810.578C474.27,808.415 481.755,806.078 489.776,802.531C476.073,801.724 463.44,801.01 450.812,800.219C447.088,799.986 443.615,800.623 440.066,801.851C425.349,806.945 410.23,810.051 394.588,810.22C368.984,810.498 344.762,804.296 321.471,794.197C287.243,779.355 260.503,756.26 244.471,722.062C241.26,715.215 237.018,709.69 231.604,704.617C208.957,683.395 189.465,659.666 175.096,631.992C169.821,621.833 162.434,613.661 152.74,607.613C138.155,598.514 122.281,592.639 105.446,589.462C88.392,586.244 71.357,585.884 54.59,591.312C44.822,594.475 39.005,604.202 40.342,614.936C41.346,622.997 49.151,628.902 59.161,629.825C71.607,630.972 83.197,627.117 95.026,624.443C121.4,618.482 144.851,623.768 164.749,642.726C178.627,655.947 188.355,671.904 196.133,689.239C203.562,705.799 210.191,722.738 219.049,738.631C238.896,774.24 266.107,801.777 305.555,816.891M475.43,425.144C477.371,434.76 479.365,444.365 481.221,453.997C481.775,456.872 483.233,458.465 486.164,458.657C491.976,459.037 497.783,459.567 503.601,459.757C510.198,459.972 510.325,459.609 508.561,453.457C501.583,429.127 496.154,404.469 492.646,379.384C489.13,354.249 488.261,328.991 488.605,303.656C488.64,301.061 489.128,298.363 487.83,295.663C482.183,296.275 477.441,299.121 472.386,301.141C467.223,303.203 465.273,306.525 465.078,312.182C463.774,350.004 468.479,387.238 475.43,425.144M556.953,379.558C544.636,384.633 531.945,388.604 519.133,392.186C516.173,393.013 514.297,394.056 515.108,397.647C517.41,407.847 519.534,418.087 521.784,428.3C522.325,430.753 523.681,431.882 526.48,431.359C549.568,427.053 570.702,418.251 589.692,404.355C592.586,402.237 592.877,400.463 589.964,398.15C584.737,393.999 580.029,389.302 575.857,384.078C568.63,375.031 568.627,375.033 556.953,379.558M518.441,337.181C516.47,337.465 514.5,337.76 512.527,338.031C509.556,338.439 508.046,340.099 508.324,343.122C509.147,352.048 509.986,360.973 510.897,369.89C511.22,373.049 512.844,374.077 516.077,373.134C530.456,368.941 544.644,364.234 558.428,358.338C560.922,357.271 562.014,355.714 561.8,352.975C561.091,343.872 563.765,335.576 568.009,327.66C568.571,326.612 569.788,325.582 568.588,323.588C552.559,329.348 536.187,334.2 518.441,337.181M544.237,290.34C534.321,288.554 524.32,289.238 514.343,289.366C510.538,289.414 507.946,290.915 508,295.306C508.071,301.131 507.888,306.961 508.012,312.784C508.132,318.413 509.502,319.466 515.141,318.492C533.246,315.365 550.848,310.5 567.654,302.982C569.521,302.147 571.841,301.836 573.047,299.258C564.23,294.456 554.768,292.141 544.237,290.34M878.986,56.462C871.135,65.409 873.892,75.015 885.494,77.078C892.775,78.372 900.362,78.226 907.809,78.198C912.033,78.183 913.546,75.471 911.628,71.828C908.69,66.248 905.403,60.827 900.435,56.721C893.562,51.042 886.872,50.827 878.986,56.462M609.019,413.965C608.582,414.204 608.1,414.387 607.715,414.692C585.281,432.441 560.244,444.537 531.982,449.681C530.757,449.904 529.277,450.042 528.603,451.617C528.824,455.797 530.086,458.511 535.294,457.403C556.542,452.884 576.365,445.173 593.867,432.025C599.601,427.718 604.946,422.98 609.975,417.887C611.272,416.574 613.554,414.799 609.019,413.965M326.944,768.677C317.799,764.384 308.654,760.091 299.508,755.798C323.115,778.348 351.217,789.525 383.791,789.343C364.63,783.804 345.993,776.794 326.944,768.677M705.666,255.939C711.229,267.02 724.878,271.45 734.604,265.33C740.805,261.429 740.98,257.605 734.833,253.687C726.496,248.373 717.362,249.815 708.347,251.21C706.421,251.508 705.222,253.033 705.666,255.939M434.671,352.741C438.472,354.189 442.031,356.333 445.773,356.965L445.773,322.499C438.338,329.259 433.682,337.081 430.845,346.082C429.739,349.592 430.629,351.465 434.671,352.741M460.398,452.421C461.199,445.685 458.207,439.729 457.024,432.353C452.22,437.714 448.225,442.17 443.966,446.923C449.492,450.108 454.521,451.648 460.398,452.421Z" style="fill-rule:nonzero;"/>
                            <path d="M367.814,578.649C389.241,569.751 408.969,572.573 426.068,587.268C447.874,606.009 458.473,630.685 460.304,659.175C460.744,666.032 457.735,669.467 451.991,669.925C446.281,670.381 442.5,666.952 441.643,660.191C439.363,642.21 433.881,625.485 422.703,610.936C413.438,598.877 402.128,591.093 386.002,593.254C379.592,594.113 373.735,596.478 368.581,600.255C362.672,604.584 361.303,610.724 362.858,617.635C368.101,640.925 379.589,660.958 394.884,679.013C399.808,684.826 400.262,688.938 396.729,693.849C393.519,698.313 387.341,699.291 383.717,695.19C364.357,673.285 347.265,650.088 342.536,620.101C339.784,602.651 346.384,589.31 362.036,581.341C363.815,580.435 365.645,579.629 367.814,578.649Z" style="fill-rule:nonzero;"/>
                            <path d="M825.906,493.187C814.815,481.428 793.93,481.813 780.94,493.86C770.393,503.642 766.528,516.755 763.409,530.154C760.964,540.656 760.802,551.226 762.936,561.818C763.165,562.953 763.275,564.132 763.272,565.29C763.257,570.823 759.978,574.667 754.809,575.292C748.95,576 745.001,573.489 744.139,567.42C740.044,538.593 743.402,511.311 761.584,487.287C777.272,466.557 805.744,459.52 829.307,470.556C842.041,476.52 847.946,486.912 849.349,500.527C851.458,521.002 846.278,540.142 838.986,558.895C836.154,566.18 833.248,573.464 829.42,580.313C825.726,586.924 821.25,588.881 816.124,586.233C810.765,583.464 809.097,578.206 812.285,571.662C820.2,555.418 826.876,538.762 829.152,520.723C830.314,511.508 831.26,502.097 825.906,493.187Z" style="fill-rule:nonzero;"/>
                            <path d="M513.899,247.23C505.988,249.83 498.401,249.826 490.972,247.23C486.338,245.611 482.825,246.413 479.169,249.731C467.666,260.168 449.473,261.455 436.481,253.087C430.486,249.225 428.712,245.02 431.126,240.387C433.84,235.178 439.547,233.43 445.759,236.376C451.167,238.941 456.404,241.265 462.352,238.125C468.202,235.036 468.515,232.874 463.632,228.713C456.443,222.585 454.186,215.116 457.186,207.371C460.192,199.606 469.242,194.948 479.373,195.16C496.498,195.519 503.869,214.15 495.159,225.151C494.666,225.772 494.412,226.582 494.057,227.285C499.855,230.971 506.548,230.488 511.554,225.881C513.745,223.866 515.573,221.453 517.529,219.188C520.643,215.58 524.325,214.502 528.653,216.785C532.963,219.057 535.047,224.016 533.404,228.663C530.12,237.949 523.179,243.576 513.899,247.23Z" style="fill-rule:nonzero;"/>
                            <path d="M652.369,175.213C665.264,180.28 670.67,188.824 670.259,203.019C669.928,214.441 662.941,223.783 652.063,227.348C634.777,233.014 617.892,220.943 617.654,202.748C617.471,188.777 622.765,179.753 633.798,175.686C639.739,173.497 645.866,173.6 652.369,175.213Z" style="fill:rgb(221,151,151);fill-rule:nonzero;"/>
                            <path d="M336.875,286.76C324.497,299.606 306.517,299.845 295.669,287.588C285.987,276.649 287.74,256.531 299.159,247.541C311.086,238.15 328.611,240.664 337.672,253.066C344.044,261.788 343.802,276.065 336.875,286.76Z" style="fill:rgb(221,151,151);fill-rule:nonzero;"/>
                            <path d="M575.654,170.276C585.666,169.2 592.896,173.234 595.644,181.093C598.735,189.933 596.057,199.538 589.297,203.855C582.369,208.28 572.183,207.625 566.59,202.109C560.96,196.556 559.899,189.71 561.934,182.305C563.797,175.526 568.435,171.704 575.654,170.276M567.09,192.61C566.885,196.661 568.643,198.894 572.866,198.834C576.13,198.788 578.231,197.299 578.62,193.943C579.004,190.625 578.085,187.936 574.393,187.229C570.654,186.514 567.787,187.446 567.09,192.61Z" style="fill-rule:nonzero;"/>
                            <path d="M349.28,226.439C348.544,215.449 354.694,207.108 364.088,205.815C374.629,204.363 382.959,210.171 385.012,220.403C386.905,229.84 381.357,238.983 372.086,241.706C361.515,244.811 351.552,238.291 349.28,226.439M378.52,219.792C377.391,219.634 376.262,219.347 375.133,219.342C371.634,219.328 370.216,221.623 369.726,224.645C369.198,227.899 370.819,230.06 373.76,231.135C376.654,232.193 379.013,231.006 380.537,228.556C382.446,225.488 381.967,222.594 378.52,219.792Z" style="fill-rule:nonzero;"/>
                            <path d="M667.016,661.614C667.772,666.607 667.034,670.66 662.492,673.024C657.821,675.454 652.115,673.878 649.967,669.675C647.457,664.765 649.071,658.516 653.454,656.169C658.491,653.473 663.896,655.499 667.016,661.614Z" style="fill-rule:nonzero;"/>
                        </g>
                    </g>
                </g>
            </g>
        </g>
    </g>
</svg>
